<?xml version="1.0" encoding="UTF-8"?>
<svg width="512px" height="512px" viewBox="0 0 512 512" version="1.1" xmlns="http://www.w3.org/2000/svg" xmlns:xlink="http://www.w3.org/1999/xlink">
    <title>apple备份</title>
    <g id="apple备份" stroke="none" stroke-width="1" fill="none" fill-rule="evenodd">
        <path d="M341.320574,26 C286.84689,42.507177 256.583732,79.923445 251.08134,138.248804 C270.889952,134.397129 280.794258,132.196172 281.894737,132.196172 C298.952153,127.244019 313.808612,115.138756 326.464115,95.3301435 C337.4689,76.6220096 343.521531,57.9138756 343.521531,39.2057416 C343.521531,34.8038278 342.421053,30.4019139 341.320574,26 Z M347.923445,131.645933 C331.966507,131.645933 314.909091,134.397129 296.751196,141 C278.043062,147.602871 265.937799,150.904306 259.334928,150.904306 C251.631579,150.904306 238.976077,147.602871 221.91866,142.100478 C204.311005,136.598086 187.803828,133.84689 173.497608,133.84689 C137.181818,133.84689 109.669856,148.15311 90.4114833,177.315789 C72.8038278,202.626794 64,235.641148 64,275.808612 C64,327.5311 82.708134,381.454545 120.124402,437.028708 C142.133971,469.492823 164.143541,486 186.703349,486 C193.30622,486 204.861244,482.698565 220.818182,476.645933 C236.22488,470.043062 250.5311,466.741627 263.736842,466.741627 C275.291866,466.741627 289.047847,469.492823 304.454545,475.545455 C319.861244,481.047847 333.066986,484.349282 343.521531,484.349282 C364.430622,484.349282 386.440191,468.942584 409.550239,438.129187 C427.708134,412.818182 440.913876,387.507177 448.617225,361.645933 C429.909091,356.69378 414.502392,344.588517 401.84689,324.779904 C389.741627,306.07177 384.239234,286.813397 384.239234,267.004785 C384.239234,235.090909 400.746411,205.37799 433.760766,176.76555 C415.052632,146.502392 386.440191,131.645933 347.923445,131.645933 Z" id="apple" fill="#E3E3E5" fill-rule="nonzero"></path>
    </g>
</svg>