<?xml version="1.0" encoding="UTF-8"?>
<svg width="512px" height="512px" viewBox="0 0 512 512" version="1.1" xmlns="http://www.w3.org/2000/svg" xmlns:xlink="http://www.w3.org/1999/xlink">
    <title>bilibili</title>
    <g id="bilibili" stroke="none" stroke-width="1" fill="none" fill-rule="evenodd">
        <g transform="translate(0, 28)" fill="#6D6D6D">
            <path d="M106.169458,48.0184627 C94.7851378,37.0384557 94.7851378,18.8064115 106.169458,7.82668889 C116.98944,-2.6088963 134.130347,-2.6088963 144.950329,7.82668889 L205.290098,66.0224321 C207.00416,67.6761162 208.460516,69.4938889 209.658596,71.4268365 L300.910933,71.4268365 C302.111289,69.4938889 303.567644,67.6761162 305.28,66.0224321 L365.6192,7.82668889 C376.439467,-2.6088963 393.580089,-2.6088963 404.400356,7.82668889 C415.786667,18.8064115 415.786667,37.0384557 404.400356,48.0184627 L380.131556,71.4268365 L398.222222,71.4268365 C461.058844,71.4268365 512,122.355755 512,185.179822 L512,341.747442 C512,404.570372 461.058844,455.500428 398.222222,455.500428 L113.777778,455.500428 C50.9400178,455.500428 0,404.570372 0,341.747442 L0,185.179538 C0,122.35547 50.9400178,71.4268365 113.777778,71.4268365 L130.440249,71.4268365 L106.169458,48.0184627 Z M113.777778,126.294452 C82.3588978,126.294452 56.8888889,151.758911 56.8888889,183.170945 L56.8888889,343.755182 C56.8888889,375.168069 82.3588978,400.631675 113.777778,400.631675 L398.222222,400.631675 C429.641956,400.631675 455.111111,375.168069 455.111111,343.755182 L455.111111,183.170945 C455.111111,151.758911 429.641956,126.294452 398.222222,126.294452 L113.777778,126.294452 Z M142.222222,237.034121 C142.222222,221.328246 154.957369,208.595875 170.666667,208.595875 C186.375964,208.595875 199.111111,221.328246 199.111111,237.034121 L199.111111,262.458767 C199.111111,278.16521 186.375964,290.897013 170.666667,290.897013 C154.957369,290.897013 142.222222,278.16521 142.222222,262.458767 L142.222222,237.034121 Z M341.333333,208.595875 C325.623467,208.595875 312.888889,221.328246 312.888889,237.034121 L312.888889,262.458767 C312.888889,278.16521 325.623467,290.897013 341.333333,290.897013 C357.0432,290.897013 369.777778,278.16521 369.777778,262.458767 L369.777778,237.034121 C369.777778,221.328246 357.0432,208.595875 341.333333,208.595875 Z"></path>
        </g>
    </g>
</svg>