<?xml version="1.0" encoding="UTF-8"?>
<svg width="512px" height="512px" viewBox="0 0 512 512" version="1.1" xmlns="http://www.w3.org/2000/svg" xmlns:xlink="http://www.w3.org/1999/xlink">
    <title>commond备份</title>
    <g id="commond备份" stroke="none" stroke-width="1" fill="none" fill-rule="evenodd">
        <path d="M212.190476,299.809524 L299.809524,299.809524 L299.809524,212.190476 L212.190476,212.190476 L212.190476,299.809524 Z M212.190476,343.619048 L212.190476,393.940798 C212.190476,419.200343 203.063492,440.85843 184.809524,458.915058 C166.555556,476.971686 144.601459,486 118.947233,486 C93.2930073,486 71.3882454,476.922351 53.2329472,458.767053 C35.0776491,440.611755 26,418.608323 26,392.756757 C26,367.497211 35.0776491,345.69112 53.2329472,327.338481 C71.3882454,308.985843 92.996997,299.809524 118.059202,299.809524 L168.380952,299.809524 L168.380952,212.190476 L118.059202,212.190476 C92.996997,212.190476 71.3882454,203.014157 53.2329472,184.661519 C35.0776491,166.30888 26,144.404118 26,118.947233 C26,93.2930073 35.0776491,71.3882454 53.2329472,53.2329472 C71.3882454,35.0776491 93.2930073,26 118.947233,26 C144.601459,26 166.555556,35.028314 184.809524,53.0849421 C203.063492,71.1415701 212.190476,92.7996568 212.190476,118.059202 L212.190476,168.380952 L299.809524,168.380952 L299.809524,118.059202 C299.809524,92.7996568 308.936508,71.1415701 327.190476,53.0849421 C345.444444,35.028314 367.398541,26 393.052767,26 C418.904333,26 440.85843,35.0776491 458.915058,53.2329472 C476.971686,71.3882454 486,93.2930073 486,118.947233 C486,144.404118 476.971686,166.30888 458.915058,184.661519 C440.85843,203.014157 419.200343,212.190476 393.940798,212.190476 L343.619048,212.190476 L343.619048,299.809524 L393.940798,299.809524 C419.200343,299.809524 440.85843,308.985843 458.915058,327.338481 C476.971686,345.69112 486,367.497211 486,392.756757 C486,418.608323 476.971686,440.611755 458.915058,458.767053 C440.85843,476.922351 418.904333,486 393.052767,486 C367.398541,486 345.444444,476.971686 327.190476,458.915058 C308.936508,440.85843 299.809524,419.200343 299.809524,393.940798 L299.809524,343.619048 L212.190476,343.619048 Z M168.380952,168.380952 L168.380952,118.947233 C168.380952,105.330759 163.546118,93.7370227 153.876448,84.1660232 C144.206778,74.5950236 132.563707,69.8095238 118.947233,69.8095238 C105.5281,69.8095238 93.983698,74.5950236 84.3140283,84.1660232 C74.6443586,93.7370227 69.8095238,105.330759 69.8095238,118.947233 C69.8095238,132.563707 74.6443586,144.206778 84.3140283,153.876448 C93.983698,163.546118 105.62677,168.380952 119.243243,168.380952 L168.380952,168.380952 Z M168.380952,343.619048 L119.243243,343.619048 C105.62677,343.619048 93.983698,348.453882 84.3140283,358.123552 C74.6443586,367.793222 69.8095238,379.337623 69.8095238,392.756757 C69.8095238,406.37323 74.6443586,418.016302 84.3140283,427.685972 C93.983698,437.355641 105.62677,442.190476 119.243243,442.190476 C132.662377,442.190476 144.206778,437.355641 153.876448,427.685972 C163.546118,418.016302 168.380952,406.4719 168.380952,393.052767 L168.380952,343.619048 Z M343.619048,168.380952 L393.052767,168.380952 C406.4719,168.380952 418.016302,163.546118 427.685972,153.876448 C437.355641,144.206778 442.190476,132.563707 442.190476,118.947233 C442.190476,105.330759 437.404976,93.7370227 427.833977,84.1660232 C418.262977,74.5950236 406.669241,69.8095238 393.052767,69.8095238 C379.436293,69.8095238 367.793222,74.5950236 358.123552,84.1660232 C348.453882,93.7370227 343.619048,105.330759 343.619048,118.947233 L343.619048,168.380952 Z M343.619048,343.619048 L343.619048,393.052767 C343.619048,406.4719 348.453882,418.016302 358.123552,427.685972 C367.793222,437.355641 379.436293,442.190476 393.052767,442.190476 C406.669241,442.190476 418.262977,437.355641 427.833977,427.685972 C437.404976,418.016302 442.190476,406.37323 442.190476,392.756757 C442.190476,379.337623 437.355641,367.793222 427.685972,358.123552 C418.016302,348.453882 406.4719,343.619048 393.052767,343.619048 L343.619048,343.619048 Z" id="commond" fill="#E3E3E5" fill-rule="nonzero"></path>
    </g>
</svg>