<?xml version="1.0" encoding="UTF-8"?>
<svg width="512px" height="512px" viewBox="0 0 512 512" version="1.1" xmlns="http://www.w3.org/2000/svg" xmlns:xlink="http://www.w3.org/1999/xlink">
    <title>nas备份</title>
    <g id="nas备份" stroke="none" stroke-width="1" fill="none" fill-rule="evenodd">
        <path d="M64,88 C37.3600004,88 16,109.36 16,136 L16,376 C16,402.64 37.3599998,424 64,424 L448,424 C474.64,424 496,402.64 496,376 L496,136 C496,109.36 474.64,88 448,88 L64,88 M76,136 C89.254834,136 100,146.745166 100,160 C100,173.254834 89.2548342,184 76,184 C62.745166,184 52,173.254834 52,160 C52,146.745166 62.7451663,136 76,136 M136,136 L448,136 L448,376 L136,376 L136,136 M160,160 L160,352 L232,352 L232,160 L160,160 M256,160 L256,352 L328,352 L328,160 L256,160 M352,160 L352,352 L424,352 L424,160 L352,160 M184,184 L208,184 L208,208 L184,208 L184,184 M280,184 L304,184 L304,208 L280,208 L280,184 M376,184 L400,184 L400,208 L376,208 L376,184 Z" id="nas" fill="#0095D5" fill-rule="nonzero"></path>
    </g>
</svg>