<?xml version="1.0" encoding="UTF-8"?>
<svg width="511px" height="128px" viewBox="0 0 511 128" version="1.1" xmlns="http://www.w3.org/2000/svg" xmlns:xlink="http://www.w3.org/1999/xlink">
    <title>immich</title>
    <g id="immich" stroke="none" stroke-width="1" fill="none" fill-rule="evenodd">
        <g transform="translate(6, 3)" fill-rule="nonzero">
            <g transform="translate(155.5, 18.5)" fill="#4251B0">
                <path d="M8.05574913,3 C12.4320557,3 16,6.53291791 16,10.7503387 C16,15.0836833 12.4320557,18.5006773 8.05574913,18.5006773 C3.67944251,18.5006773 0,15.0836833 0,10.7503387 C0,6.53291791 3.68501742,3 8.05574913,3 Z M1.26550523,43.4629504 C1.26550523,41.4094419 0.802787456,38.1028515 0.802787456,36.1652669 C0.802787456,32.06377 4.02508711,28.8675833 8.05574913,28.8675833 C12.0864111,28.8675833 15.3087108,32.0582498 15.3087108,36.1652669 C15.3087108,38.1028515 14.7344948,41.4094419 14.7344948,43.4629504 L14.7344948,69.9046329 C14.7344948,71.9581414 15.3087108,75.2647318 15.3087108,77.2023164 C15.3087108,81.3038133 12.0864111,84.5 8.05574913,84.5 C4.02508711,84.5 0.802787456,81.3093335 0.802787456,77.2023164 C0.802787456,75.2647318 1.26550523,71.9581414 1.26550523,69.9046329 L1.26550523,43.4629504 Z" id="i"></path>
                <path d="M94.1343793,77.1683063 C94.1343793,75.2216917 94.7034789,71.8996914 94.7034789,69.8366127 L94.7034789,50.0266204 C94.7034789,43.0387731 91.051296,38.463397 84.7801501,38.463397 C80.6748977,38.463397 77.0227149,40.5264757 74.6247613,44.5306231 C74.851296,45.7895448 74.9673261,47.0484664 74.9673261,48.4238522 L74.9673261,69.8366127 C74.9673261,71.8996914 75.5364256,75.2216917 75.5364256,77.1683063 C75.5364256,81.2889178 72.3428377,84.5 68.23206,84.5 C64.4693724,84.5 61.1597544,81.2944637 61.1597544,77.1683063 C61.1597544,75.2216917 61.728854,71.8996914 61.728854,69.8366127 L61.728854,49.6827739 C61.728854,47.508777 61.3862892,45.5621624 60.5906548,43.8429302 C59.1043656,40.5209298 56.1428377,38.4578511 52.03206,38.4578511 C47.8107776,38.4578511 44.3906548,40.631848 41.8766712,44.5250772 L41.8766712,69.8310667 C41.8766712,71.8941454 42.4457708,75.2161458 42.4457708,77.1627604 C42.4457708,81.2833719 39.1361528,84.4944541 35.2574352,84.4944541 C31.2626876,84.4944541 28.0690996,81.2889178 28.0690996,77.1627604 C28.0690996,75.2161458 28.5276944,71.8941454 28.5276944,69.8310667 L28.5276944,43.3770737 C28.5276944,41.313995 27.5,37.6536941 27.5,35.9344618 C27.5,31.8138503 30.4670532,28.6027681 34.4618008,28.6027681 C38.2244884,28.6027681 40.3959072,31.1206115 41.0810368,34.4426119 C44.5011596,29.8616898 49.2970668,27 55.5682128,27 C62.9830832,27 68.34809,30.5493827 71.6521828,36.2783083 C75.4148704,30.3220004 80.8959072,27 87.7361528,27 C99.2618008,27 108.041405,35.3576871 108.041405,48.7566069 L108.041405,69.8255208 C108.041405,71.8885995 108.5,75.2105999 108.5,77.1572145 C108.5,81.277826 105.422442,84.4889082 101.311664,84.4889082 C97.4439973,84.5 94.1343793,81.2944637 94.1343793,77.1683063 Z" id="m"></path>
                <path d="M185.634379,77.1683063 C185.634379,75.2216917 186.203479,71.8996914 186.203479,69.8366127 L186.203479,50.0266204 C186.203479,43.0387731 182.551296,38.463397 176.28015,38.463397 C172.174898,38.463397 168.522715,40.5264757 166.124761,44.5306231 C166.351296,45.7895448 166.467326,47.0484664 166.467326,48.4238522 L166.467326,69.8366127 C166.467326,71.8996914 167.036426,75.2216917 167.036426,77.1683063 C167.036426,81.2889178 163.842838,84.5 159.73206,84.5 C155.963847,84.5 152.659754,81.2944637 152.659754,77.1683063 C152.659754,75.2216917 153.228854,71.8996914 153.228854,69.8366127 L153.228854,49.6827739 C153.228854,47.508777 152.886289,45.5621624 152.090655,43.8429302 C150.609891,40.5209298 147.642838,38.4578511 143.53206,38.4578511 C139.310778,38.4578511 135.890655,40.631848 133.376671,44.5250772 L133.376671,69.8310667 C133.376671,71.8941454 133.945771,75.2161458 133.945771,77.1627604 C133.945771,81.2833719 130.636153,84.4944541 126.757435,84.4944541 C122.762688,84.4944541 119.5691,81.2889178 119.5691,77.1627604 C119.5691,75.2161458 120.027694,71.8941454 120.027694,69.8310667 L120.027694,43.3770737 C120.027694,41.313995 119,37.6536941 119,35.9344618 C119,31.8138503 121.967053,28.6027681 125.961801,28.6027681 C129.730014,28.6027681 131.895907,31.1206115 132.581037,34.4426119 C136.006685,29.8616898 140.797067,27 147.068213,27 C154.483083,27 159.84809,30.5493827 163.152183,36.2783083 C166.91487,30.3220004 172.390382,27 179.236153,27 C190.761801,27 199.541405,35.3576871 199.541405,48.7566069 L199.541405,69.8255208 C199.541405,71.8885995 200,75.2105999 200,77.1572145 C200,81.277826 196.922442,84.4889082 192.811664,84.4889082 C188.943997,84.5 185.634379,81.2944637 185.634379,77.1683063 Z" id="m"></path>
                <path d="M219.055755,3 C223.432059,3 227.000006,6.53291791 227.000006,10.7503387 C227.000006,15.0836833 223.432059,18.5006773 219.055755,18.5006773 C214.679452,18.5006773 211.000006,15.0836833 211.000006,10.7503387 C210.994438,6.53291791 214.679452,3 219.055755,3 Z M212.265517,43.4629504 C212.265517,41.4094419 211.802799,38.1028515 211.802799,36.1652669 C211.802799,32.06377 215.025097,28.8675833 219.055755,28.8675833 C223.086414,28.8675833 226.308711,32.0582498 226.308711,36.1652669 C226.308711,38.1028515 225.734496,41.4094419 225.734496,43.4629504 L225.734496,69.9046329 C225.734496,71.9581414 226.308711,75.2647318 226.308711,77.2023164 C226.308711,81.3038133 223.086414,84.5 219.055755,84.5 C215.025097,84.5 211.802799,81.3093335 211.802799,77.2023164 C211.802799,75.2647318 212.265517,71.9581414 212.265517,69.9046329 L212.265517,43.4629504 Z" id="i"></path>
                <path d="M236,56.25 C236,40.0777778 246.08884,27 262.829539,27 C271.657968,27 279.79789,31.0166667 283.468073,36.9833333 C284.845086,39.1611111 285.072737,40.4222222 285.072737,41.4555556 C285.072737,45.0111111 282.318712,47.9944444 278.309828,47.9944444 C275.672404,47.9944444 273.268184,46.5055556 272.235425,43.8666667 C270.630761,40.3111111 267.532482,38.2444444 262.835092,38.2444444 C254.006663,38.2444444 249.076069,46.1611111 249.076069,56.1388889 C249.076069,66.2333333 254.234314,74.0333333 263.179345,74.0333333 C267.993337,74.0333333 271.435869,72.3111111 273.040533,68.7555556 C274.184342,66.3444444 276.366463,64.2833333 279.34814,64.2833333 C283.473626,64.2833333 286,67.15 286,70.7055556 C286,72.4277778 285.311494,74.4888889 283.823431,76.4388889 C280.036646,81.4888889 272.929484,85.5 263.184897,85.5 C245.97779,85.5 236,72.65 236,56.25 Z" id="c"></path>
                <path d="M329.06065,77.1901584 C329.06065,75.2493456 329.521244,71.9372464 329.521244,69.8803167 L329.521244,50.3616019 C329.521244,43.3945819 325.625617,38.6006086 318.977522,38.6006086 C314.393778,38.6006086 310.49815,40.7681259 307.978756,44.3069297 L307.978756,69.8803167 C307.978756,71.9372464 308.43935,75.2493456 308.43935,77.1901584 C308.43935,81.2984884 305.231839,84.5 301.219675,84.5 C297.207511,84.5 294,81.3040178 294,77.1901584 C294,75.2493456 294.571581,71.9372464 294.571581,69.8803167 L294.571581,14.6196833 C294.571581,12.5627536 294,9.25065436 294,7.30984164 C294,3.20151158 297.324047,0 301.219675,0 C305.231839,0 308.43935,3.1959822 308.43935,7.30984164 C308.43935,9.25065436 307.978756,12.5627536 307.978756,14.6196833 L307.978756,33.2315796 C311.419339,29.4660712 316.341592,27.1824369 322.645628,27.1824369 C334.449047,27.1824369 342.928419,35.9741526 342.928419,48.5313768 L342.928419,69.8803167 C342.928419,71.9372464 343.5,75.2493456 343.5,77.1901584 C343.5,81.2984884 340.175953,84.5 336.280325,84.5 C332.268161,84.5 329.06065,81.3040178 329.06065,77.1901584 Z" id="h"></path>
            </g>
            <g id="logo">
                <path d="M57.8817949,36.6237852 C66.0318695,43.8836753 72.6020038,51.6677138 76.8266894,59 C84.087508,45.9339354 88.9366873,30.4092962 89,20.5199764 C89,20.4504761 89,20.3867674 89,20.3288505 C89,5.69613233 74.4927521,0 62,0 C49.5072479,0 35,5.69323648 35,20.3288505 C35,20.528664 35,20.7979778 35,21.1194169 C41.9615221,24.2295573 50.220955,29.7953765 57.8817949,36.6237852 Z" id="Stroke-5" fill="#FA2921"></path>
                <path d="M13.6305826,76 C18.7388841,70.3404914 26.5744991,64.203848 35.4202301,59.0185999 C44.8287402,53.5028066 54.2401363,49.6512365 62.5,47.8864125 C52.3670924,36.9812954 39.1547737,27.613932 29.7982125,24.5211787 C29.7318334,24.5010585 29.6712264,24.4809384 29.6163916,24.4608183 C15.7460544,19.9740265 5.85268858,32.0058716 1.98250086,43.8738813 C-1.89057291,55.741891 -0.987240502,71.2688922 12.8830967,75.755684 C13.0706897,75.8189187 13.3246617,75.8993993 13.6305826,76 Z" id="Stroke-4" fill="#ED79B5"></path>
                <path d="M123.010464,44.0104661 C119.123647,32.0628943 109.198072,19.9503887 95.2785163,24.4672595 C95.0873614,24.5280246 94.8324881,24.6119383 94.5254817,24.7103198 C93.7290027,32.3319968 91.0035967,41.947347 86.8908691,51.380402 C82.520372,61.4153206 77.1593448,70.0989396 71.5,76.4040399 C86.1841751,79.3120829 102.461308,79.1587234 111.888722,76.1638731 C111.955337,76.1436181 112.016159,76.1233631 112.071188,76.103108 C125.990744,71.5891308 126.897282,55.9580378 123.010464,44.0104661 Z" id="Stroke-3" fill="#FFB400"></path>
                <path d="M49.9849857,87.7895913 C47.6178216,77.1012059 46.8442197,66.9250988 47.7134354,58.5 C34.1160047,64.7717929 21.0343087,74.4587753 15.1671029,82.4179034 C15.1265395,82.4728938 15.0888735,82.5249899 15.0541048,82.5741918 C6.4488696,94.4057974 14.9150303,107.586114 25.0906486,114.972184 C35.2662668,122.358255 50.4311831,126.329137 59.0364183,114.497531 C59.1552111,114.335454 59.3116699,114.118387 59.5,113.857906 C55.6609641,107.221441 52.2101778,97.8383523 49.9849857,87.7895913 Z" id="Stroke-2" fill="#1E83F7"></path>
                <path d="M109.004534,81.9081229 C101.546094,83.5096876 91.6082264,83.8890817 81.414065,82.8986023 C70.5719697,81.8444078 60.7060949,79.4348205 53,76 C54.7595007,90.8658798 59.9084161,106.296507 65.6390323,114.336188 C65.6793482,114.391214 65.7167843,114.443345 65.7513408,114.492579 C74.3040694,126.331994 89.3764537,122.358492 99.4899833,114.967546 C109.603513,107.5766 118.020895,94.3875844 109.468167,82.5481695 C109.350099,82.3859858 109.194595,82.1687754 109.004534,81.9081229 Z" id="Stroke-1" fill="#18C249"></path>
            </g>
        </g>
    </g>
</svg>