<?xml version="1.0" encoding="UTF-8"?>
<svg width="511px" height="128px" viewBox="0 0 511 128" version="1.1" xmlns="http://www.w3.org/2000/svg" xmlns:xlink="http://www.w3.org/1999/xlink">
    <title>portainer</title>
    <g id="portainer" stroke="none" stroke-width="1" fill="none" fill-rule="evenodd">
        <g transform="translate(20, 1)">
            <polygon id="Stroke-15" fill="#0BA5EC" points="30.8081227 27.6750932 28.8238707 27.6750932 28.8238707 37.6485702 30.8081227 37.6485702"></polygon>
            <polygon id="Stroke-14" fill="#0BA5EC" points="39.2673021 27.6750932 37.2830501 27.6750932 37.2830501 37.6485702 39.2673021 37.6485702"></polygon>
            <polygon id="Stroke-13" fill="#0BA5EC" points="50.859511 8.72026523 48.8230419 5.32615002 15.1429755 24.280978 17.1794447 27.6750932"></polygon>
            <polygon id="Stroke-12" fill="#0BA5EC" points="50.6506424 8.72026523 52.6871115 5.32615002 86.3671778 24.3331952 84.3307087 27.7273104"></polygon>
            <polygon id="Stroke-11" fill="#0BA5EC" points="92.3199337 27.7273104 92.3199337 23.8110236 0 23.8110236 0 27.7273104"></polygon>
            <path d="M60.9896395,83.3907998 L60.9896395,25.0120182 L65.0103605,25.0120182 L65.0103605,86.2627435 C63.9138002,85.0617489 62.5561542,84.1740572 60.9896395,83.443017 L60.9896395,83.3907998 Z" id="Stroke-10" fill="#0BA5EC"></path>
            <path d="M48.875259,82.3986738 L48.875259,0 L52.8959801,0 L52.8959801,82.8686283 C51.7472027,82.3464567 48.9796933,82.3986738 48.875259,82.3986738 Z" id="Stroke-9" fill="#0BA5EC"></path>
            <path d="M10.6000829,90.5967675 C5.69167012,87.0460008 2.40198923,81.3543307 2.40198923,74.9316204 C2.40198923,71.5375052 3.34189805,68.14339 5.06506424,65.2192292 L39.5806051,65.2192292 C41.3559884,68.14339 42.2436801,71.5375052 42.2436801,74.9316204 C42.2436801,77.9079983 41.8259428,80.6755077 40.6249482,83.1819312 C38.0140903,80.7277248 34.1500207,79.6833817 30.2859511,79.6833817 C23.3932864,79.6833817 17.4927476,83.8607542 15.9262329,90.1268131 C15.4040613,90.1268131 15.0385412,90.0223788 14.5163697,90.0223788 C13.2109407,90.0223788 11.9055118,90.2834646 10.6000829,90.5967675 Z" id="Stroke-8" fill="#0BA5EC"></path>
            <polygon id="Stroke-7" fill="#0BA5EC" points="27.5184418 42.0348114 17.0750104 42.0348114 17.0750104 52.2693742 27.5184418 52.2693742"></polygon>
            <polygon id="Stroke-6" fill="#0BA5EC" points="15.7695814 42.0348114 5.32615002 42.0348114 5.32615002 52.2693742 15.7695814 52.2693742"></polygon>
            <polygon id="Stroke-5" fill="#0BA5EC" points="15.7695814 53.4703688 5.32615002 53.4703688 5.32615002 63.7049316 15.7695814 63.7049316 15.7695814 53.4703688"></polygon>
            <polygon id="Stroke-4" fill="#0BA5EC" points="27.5184418 53.4703688 17.0750104 53.4703688 17.0750104 63.7049316 27.5184418 63.7049316 27.5184418 53.4703688"></polygon>
            <polygon id="Stroke-3" fill="#0BA5EC" points="39.2673021 53.4703688 28.8238707 53.4703688 28.8238707 63.7049316 39.2673021 63.7049316 39.2673021 53.4703688"></polygon>
            <polygon id="Stroke-2" fill="#0BA5EC" points="39.2673021 36.5520099 28.8238707 36.5520099 28.8238707 46.7865727 39.2673021 46.7865727 39.2673021 36.5520099"></polygon>
            <path d="M17.6493991,92.1632822 C19.0592623,86.2627435 24.5420638,81.8242851 31.0692085,81.8242851 C35.246581,81.8242851 39.0062163,83.6518856 41.564857,86.5238293 C43.7579776,85.0095317 46.4210526,84.1740572 49.3452134,84.1740572 C56.9167012,84.1740572 63.0783257,90.1790303 63.0783257,97.5938666 C63.0783257,99.1081641 62.81724,100.570245 62.3472855,101.980108 C64.0182346,104.173228 65.0625777,106.992955 65.0625777,109.969333 C65.0625777,117.384169 58.9009532,123.389142 51.3294654,123.389142 C47.9875673,123.389142 44.9067551,122.240365 42.556983,120.30833 C40.0505595,123.702445 35.9776212,126 31.3302942,126 C26.0041442,126 21.3568172,123.023622 19.0592623,118.689598 C18.1193535,118.898467 17.1794447,119.002901 16.1873187,119.002901 C8.61583092,119.002901 2.40198923,112.997928 2.40198923,105.583092 C2.40198923,98.1682553 8.56361376,92.1632822 16.1873187,92.1632822 C16.6572731,92.1632822 17.1794447,92.1632822 17.6493991,92.1632822 Z" id="Stroke-1" fill="#0BA5EC"></path>
            <path d="M91.3800249,55.4024036 C92.6854538,53.7314546 94.4608371,52.3215914 96.758392,51.1728139 C99.0037298,50.0240365 101.56237,49.4496477 104.434314,49.4496477 C107.671778,49.4496477 110.648156,50.2329051 113.311231,51.7994198 C116.026523,53.3137174 118.167426,55.506838 119.681724,58.3265644 C121.196022,61.1462909 121.979279,64.3315375 121.979279,67.9867385 C121.979279,71.6419395 121.196022,74.8794032 119.681724,77.803564 C118.167426,80.6755077 116.026523,82.8686283 113.311231,84.4873601 C110.648156,86.0538748 107.671778,86.8371322 104.434314,86.8371322 C101.56237,86.8371322 99.055947,86.3149606 96.8106092,85.2184003 C94.6174886,84.0696229 92.7898881,82.6597596 91.3800249,80.9888106 L91.3800249,103.494405 L83.6518856,103.494405 L83.6518856,50.0762536 L91.3800249,50.0762536 L91.3800249,55.4024036 Z M114.094488,68.0389557 C114.094488,65.5325321 113.572317,63.3916287 112.475756,61.6162453 C111.431413,59.7886448 110.02155,58.3787816 108.246167,57.4910899 C106.523,56.5511811 104.6954,56.0290095 102.658931,56.0290095 C100.622462,56.0290095 98.8470783,56.4989639 97.071695,57.4910899 C95.3485288,58.4309988 93.9386656,59.840862 92.8421053,61.7206797 C91.7977621,63.5482801 91.2755906,65.7414007 91.2755906,68.2478243 C91.2755906,70.7542478 91.7977621,72.9473684 92.8421053,74.8271861 C93.9386656,76.6547866 95.3485288,78.0646498 97.071695,79.0567758 C98.8470783,79.9966846 100.674679,80.5188562 102.658931,80.5188562 C104.643183,80.5188562 106.523,80.0489018 108.246167,79.0567758 C110.02155,78.0646498 111.431413,76.6025694 112.475756,74.7227518 C113.572317,72.8429341 114.094488,70.6498135 114.094488,68.14339 L114.094488,68.0389557 Z" id="p" fill="#1C1C1C" fill-rule="nonzero"></path>
            <path d="M145.894737,86.9415665 C142.34397,86.9415665 139.158724,86.1583092 136.338997,84.6440116 C133.467053,83.0774969 131.273933,80.8843763 129.602984,78.0646498 C127.984252,75.1927062 127.148777,71.9030253 127.148777,68.1956071 C127.148777,64.488189 127.984252,61.2507252 129.655201,58.3787816 C131.32615,55.506838 133.623705,53.3137174 136.495649,51.7994198 C139.367592,50.2851223 142.605056,49.5018649 146.20804,49.5018649 C149.811024,49.5018649 152.99627,50.2851223 155.920431,51.7994198 C158.844592,53.3137174 161.08993,55.506838 162.760879,58.3787816 C164.431828,61.2507252 165.267302,64.488189 165.267302,68.1956071 C165.267302,71.9030253 164.431828,75.140489 162.708661,78.0124327 C160.985495,80.8843763 158.635723,83.0774969 155.659345,84.6440116 C152.735184,86.1583092 149.445504,86.9415665 145.894737,86.9415665 L145.894737,86.9415665 Z M145.894737,80.4144219 C147.878989,80.4144219 149.758806,79.9444675 151.481973,79.0567758 C153.257356,78.116867 154.667219,76.7592209 155.76378,74.9316204 C156.86034,73.1040199 157.382511,70.8586821 157.382511,68.2478243 C157.382511,65.6369664 156.86034,63.3916287 155.815997,61.6162453 C154.771654,59.7886448 153.414007,58.3787816 151.690841,57.4910899 C149.967675,56.5511811 148.140075,56.1334438 146.103605,56.1334438 C144.067136,56.1334438 142.239536,56.6033983 140.51637,57.4910899 C138.845421,58.4309988 137.487775,59.7886448 136.495649,61.6162453 C135.503523,63.3916287 134.981351,65.6369664 134.981351,68.2478243 C134.981351,72.1641111 135.973477,75.1927062 138.009946,77.3336096 C140.098632,79.4222959 142.70949,80.466639 145.790303,80.466639 L145.894737,80.4144219 Z" id="o" fill="#1C1C1C" fill-rule="nonzero"></path>
            <path d="M180.671363,55.3501865 C181.820141,53.522586 183.282221,52.0605056 185.162039,51.0683796 C187.041857,50.0240365 189.287194,49.5018649 191.898052,49.5018649 L191.898052,57.2822213 L189.9138,57.2822213 C186.885205,57.2822213 184.58765,58.0132615 182.968918,59.5275591 C181.454621,61.0418566 180.671363,63.6004973 180.671363,67.3079155 L180.671363,86.3671778 L172.943224,86.3671778 L172.943224,50.1284708 L180.671363,50.1284708 L180.671363,55.4024036 L180.671363,55.3501865 Z" id="r" fill="#1C1C1C" fill-rule="nonzero"></path>
            <path d="M208.033154,56.185661 L208.033154,76.2370493 C208.033154,77.5946954 208.346457,78.5868214 208.973063,79.2134273 C209.651886,79.787816 210.800663,80.0489018 212.367178,80.0489018 L217.118939,80.0489018 L217.118939,86.3149606 L211.009532,86.3149606 C207.510982,86.3149606 204.847907,85.5317033 203.020307,83.9651886 C201.140489,82.3986738 200.252797,79.8400332 200.252797,76.2892665 L200.252797,56.2378782 L195.814339,56.2378782 L195.814339,50.1284708 L200.252797,50.1284708 L200.252797,41.0949026 L208.033154,41.0949026 L208.033154,50.1284708 L217.118939,50.1284708 L217.118939,56.2378782 L208.033154,56.2378782 L208.033154,56.185661 Z" id="t" fill="#1C1C1C" fill-rule="nonzero"></path>
            <path d="M221.661832,68.0389557 C221.661832,64.3837547 222.445089,61.1985081 223.959387,58.3787816 C225.525901,55.5590551 227.666805,53.4181517 230.32988,51.851637 C233.045172,50.2851223 236.02155,49.5018649 239.311231,49.5018649 C242.235392,49.5018649 244.794032,50.0762536 246.987153,51.2250311 C249.180274,52.3215914 250.955657,53.6792375 252.261086,55.3501865 L252.261086,50.0762536 L260.041442,50.0762536 L260.041442,86.3149606 L252.261086,86.3149606 L252.261086,80.9365935 C250.955657,82.6597596 249.180274,84.0696229 246.882719,85.2184003 C244.637381,86.3671778 242.026523,86.9415665 239.154579,86.9415665 C235.917116,86.9415665 232.992955,86.1583092 230.32988,84.5917944 C227.666805,82.9730626 225.525901,80.7277248 223.959387,77.9079983 C222.445089,75.0360547 221.661832,71.7463738 221.661832,68.0911728 L221.661832,68.0389557 Z M252.261086,68.1956071 C252.261086,65.6891836 251.738914,63.5482801 250.642354,61.6684625 C249.598011,59.840862 248.240365,58.4309988 246.517199,57.4388728 C244.794032,56.4989639 242.966432,55.9767924 240.929963,55.9767924 C238.893494,55.9767924 237.065893,56.4467468 235.342727,57.4388728 C233.619561,58.3787816 232.209697,59.7364277 231.113137,61.5640282 C230.068794,63.3394115 229.546622,65.5325321 229.546622,67.9867385 C229.546622,70.4409449 230.068794,72.6862826 231.113137,74.5661003 C232.209697,76.4459179 233.619561,77.9079983 235.342727,78.9001243 C237.11811,79.8400332 238.945711,80.3622047 240.929963,80.3622047 C242.914215,80.3622047 244.794032,79.8922503 246.517199,78.9001243 C248.240365,77.9602155 249.598011,76.5503523 250.642354,74.6705346 C251.738914,72.7907169 252.261086,70.5975964 252.261086,68.0911728 L252.261086,68.1956071 Z" id="a" fill="#1C1C1C" fill-rule="nonzero"></path>
            <path d="M274.192292,45.2722752 C272.782429,45.2722752 271.633651,44.8023208 270.641525,43.9146291 C269.701616,42.9747203 269.231662,41.87816 269.231662,40.4682967 C269.231662,39.0584335 269.701616,37.9618732 270.641525,37.0219644 C271.581434,36.0820555 272.782429,35.6643183 274.192292,35.6643183 C275.602155,35.6643183 276.698715,36.1342727 277.638624,37.0219644 C278.578533,37.9618732 279.048487,39.0584335 279.048487,40.4682967 C279.048487,41.87816 278.578533,42.9747203 277.638624,43.9146291 C276.698715,44.8545379 275.549938,45.2722752 274.192292,45.2722752 Z M278.004144,50.0762536 L278.004144,86.3149606 L270.276005,86.3149606 L270.276005,50.0762536 L278.004144,50.0762536 Z" id="i" fill="#1C1C1C" fill-rule="nonzero"></path>
            <path d="M306.984666,49.5018649 C309.908827,49.5018649 312.571902,50.0762536 314.869457,51.2772482 C317.219229,52.4782429 319.04683,54.201409 320.352259,56.5511811 C321.657688,58.9009532 322.336511,61.6684625 322.336511,64.9581434 L322.336511,86.3149606 L314.660588,86.3149606 L314.660588,66.0547037 C314.660588,62.81724 313.825114,60.3108164 312.154165,58.6398674 C310.483216,56.864484 308.185661,56.0290095 305.313717,56.0290095 C302.441774,56.0290095 300.092002,56.9167012 298.368835,58.6398674 C296.697886,60.3630336 295.862412,62.81724 295.862412,66.0547037 L295.862412,86.3149606 L288.134273,86.3149606 L288.134273,50.0762536 L295.862412,50.0762536 L295.862412,54.201409 C297.115624,52.6871115 298.734356,51.538334 300.66639,50.7028595 C302.650642,49.867385 304.739329,49.4496477 306.984666,49.4496477 L306.984666,49.5018649 Z" id="n" fill="#1C1C1C" fill-rule="nonzero"></path>
            <path d="M366.512225,67.3079155 C366.512225,68.6655615 366.407791,69.9187733 366.25114,71.0153336 L337.688355,71.0153336 C337.897223,73.8872772 339.046001,76.2370493 341.030253,78.0124327 C343.014505,79.787816 345.468711,80.6232905 348.340655,80.6232905 C352.518027,80.6232905 355.442188,78.9523415 357.165354,75.5582263 L365.520099,75.5582263 C364.371322,78.9001243 362.334853,81.6154165 359.358475,83.7563199 C356.434314,85.8450062 352.726896,86.8893494 348.340655,86.8893494 C344.789888,86.8893494 341.552424,86.106092 338.680481,84.5917944 C335.860754,83.0252797 333.667634,80.8321591 332.048902,78.0124327 C330.482387,75.140489 329.69913,71.8508081 329.69913,68.14339 C329.69913,64.4359718 330.482387,61.1462909 331.996685,58.3265644 C333.563199,55.4546208 335.75632,53.2615002 338.576046,51.7472027 C341.44799,50.2329051 344.685454,49.4496477 348.340655,49.4496477 C351.995856,49.4496477 355.024451,50.1806879 357.79196,51.6949855 C360.55947,53.2092831 362.700373,55.2979693 364.214671,58.0132615 C365.728968,60.6763365 366.512225,63.7571488 366.512225,67.3079155 L366.512225,67.3079155 Z M358.418566,64.9581434 C358.418566,62.1906341 357.374223,59.9975135 355.389971,58.3265644 C353.405719,56.6556154 350.951513,55.8201409 347.975135,55.8201409 C345.31206,55.8201409 343.014505,56.6556154 341.134687,58.3265644 C339.254869,59.9452963 338.106092,62.1384169 337.740572,64.9581434 L358.418566,64.9581434 L358.418566,64.9581434 Z" id="e" fill="#1C1C1C" fill-rule="nonzero"></path>
            <path d="M381.86407,55.3501865 C383.012847,53.522586 384.474927,52.0605056 386.354745,51.0683796 C388.234563,50.0240365 390.479901,49.5018649 393.090758,49.5018649 L393.090758,57.2822213 L391.106506,57.2822213 C388.077911,57.2822213 385.780356,58.0132615 384.161625,59.5275591 C382.647327,61.0418566 381.86407,63.6004973 381.86407,67.3079155 L381.86407,86.3671778 L374.13593,86.3671778 L374.13593,50.1284708 L381.86407,50.1284708 L381.86407,55.4024036 L381.86407,55.3501865 Z" id="r" fill="#1C1C1C" fill-rule="nonzero"></path>
            <path d="M403.273104,86.784915 C401.863241,86.784915 400.714463,86.3149606 399.722337,85.427269 C398.782429,84.4873601 398.312474,83.3907998 398.312474,81.9809366 C398.312474,80.5710734 398.782429,79.4745131 399.722337,78.5346042 C400.662246,77.5946954 401.863241,77.1769581 403.273104,77.1769581 C404.682967,77.1769581 405.779528,77.6469126 406.719436,78.5346042 C407.659345,79.4745131 408.1293,80.5710734 408.1293,81.9809366 C408.1293,83.3907998 407.659345,84.4873601 406.719436,85.427269 C405.779528,86.3671778 404.63075,86.784915 403.273104,86.784915 Z" id="round-1" fill="#1C1C1C" fill-rule="nonzero"></path>
            <path d="M420.452549,45.2722752 C419.042685,45.2722752 417.893908,44.8023208 416.901782,43.9146291 C415.961873,42.9747203 415.491919,41.87816 415.491919,40.4682967 C415.491919,39.0584335 415.961873,37.9618732 416.901782,37.0219644 C417.841691,36.0820555 419.042685,35.6643183 420.452549,35.6643183 C421.862412,35.6643183 422.958972,36.1342727 423.898881,37.0219644 C424.83879,37.9618732 425.308744,39.0584335 425.308744,40.4682967 C425.308744,41.87816 424.83879,42.9747203 423.898881,43.9146291 C422.958972,44.8545379 421.810195,45.2722752 420.452549,45.2722752 Z M424.264401,50.0762536 L424.264401,86.3149606 L416.536262,86.3149606 L416.536262,50.0762536 L424.264401,50.0762536 Z" id="i" fill="#1C1C1C" fill-rule="nonzero"></path>
            <path d="M450.634065,86.9415665 C447.083299,86.9415665 443.898052,86.1583092 441.078326,84.6440116 C438.206382,83.0774969 436.013262,80.8843763 434.342312,78.0646498 C432.723581,75.1927062 431.888106,71.9030253 431.888106,68.1956071 C431.888106,64.488189 432.723581,61.2507252 434.39453,58.3787816 C436.065479,55.506838 438.363034,53.3137174 441.234977,51.7994198 C444.106921,50.2851223 447.344385,49.5018649 450.947368,49.5018649 C454.550352,49.5018649 457.735599,50.2851223 460.65976,51.7994198 C463.531703,53.3137174 465.829258,55.506838 467.500207,58.3787816 C469.171156,61.2507252 470.006631,64.488189 470.006631,68.1956071 C470.006631,71.9030253 469.171156,75.140489 467.44799,78.0124327 C465.724824,80.8843763 463.375052,83.0774969 460.398674,84.6440116 C457.474513,86.1583092 454.184832,86.9415665 450.634065,86.9415665 L450.634065,86.9415665 Z M450.634065,80.4144219 C452.618317,80.4144219 454.498135,79.9444675 456.221301,79.0567758 C457.996685,78.116867 459.406548,76.7592209 460.503108,74.9316204 C461.599668,73.1040199 462.12184,70.8586821 462.12184,68.2478243 C462.12184,65.6369664 461.599668,63.3916287 460.555325,61.6162453 C459.510982,59.7886448 458.153336,58.3787816 456.43017,57.4910899 C454.707004,56.5511811 452.879403,56.1334438 450.842934,56.1334438 C448.806465,56.1334438 446.978864,56.6033983 445.255698,57.4910899 C443.584749,58.4309988 442.227103,59.7886448 441.234977,61.6162453 C440.242851,63.3916287 439.72068,65.6369664 439.72068,68.2478243 C439.72068,72.1641111 440.712806,75.1927062 442.749275,77.3336096 C444.837961,79.4222959 447.448819,80.466639 450.529631,80.466639 L450.634065,80.4144219 Z" id="o" fill="#1C1C1C" fill-rule="nonzero"></path>
        </g>
    </g>
</svg>