<?xml version="1.0" encoding="UTF-8"?>
<svg width="512px" height="512px" viewBox="0 0 512 512" version="1.1" xmlns="http://www.w3.org/2000/svg" xmlns:xlink="http://www.w3.org/1999/xlink">
    <title>cmd</title>
    <g id="cmd" stroke="none" stroke-width="1" fill="none" fill-rule="evenodd">
        <g id="commond" transform="translate(26, 26)" fill="#6D6D6D" fill-rule="nonzero">
            <path d="M186.190476,273.809524 L273.809524,273.809524 L273.809524,186.190476 L186.190476,186.190476 L186.190476,273.809524 Z M186.190476,317.619048 L186.190476,367.940798 C186.190476,393.200343 177.063492,414.85843 158.809524,432.915058 C140.555556,450.971686 118.601459,460 92.947233,460 C67.2930073,460 45.3882454,450.922351 27.2329472,432.767053 C9.0776491,414.611755 0,392.608323 0,366.756757 C0,341.497211 9.0776491,319.69112 27.2329472,301.338481 C45.3882454,282.985843 66.996997,273.809524 92.059202,273.809524 L142.380952,273.809524 L142.380952,186.190476 L92.059202,186.190476 C66.996997,186.190476 45.3882454,177.014157 27.2329472,158.661519 C9.0776491,140.30888 0,118.404118 0,92.947233 C0,67.2930073 9.0776491,45.3882454 27.2329472,27.2329472 C45.3882454,9.0776491 67.2930073,0 92.947233,0 C118.601459,0 140.555556,9.028314 158.809524,27.0849421 C177.063492,45.1415701 186.190476,66.7996568 186.190476,92.059202 L186.190476,142.380952 L273.809524,142.380952 L273.809524,92.059202 C273.809524,66.7996568 282.936508,45.1415701 301.190476,27.0849421 C319.444444,9.028314 341.398541,0 367.052767,0 C392.904333,0 414.85843,9.0776491 432.915058,27.2329472 C450.971686,45.3882454 460,67.2930073 460,92.947233 C460,118.404118 450.971686,140.30888 432.915058,158.661519 C414.85843,177.014157 393.200343,186.190476 367.940798,186.190476 L317.619048,186.190476 L317.619048,273.809524 L367.940798,273.809524 C393.200343,273.809524 414.85843,282.985843 432.915058,301.338481 C450.971686,319.69112 460,341.497211 460,366.756757 C460,392.608323 450.971686,414.611755 432.915058,432.767053 C414.85843,450.922351 392.904333,460 367.052767,460 C341.398541,460 319.444444,450.971686 301.190476,432.915058 C282.936508,414.85843 273.809524,393.200343 273.809524,367.940798 L273.809524,317.619048 L186.190476,317.619048 Z M142.380952,142.380952 L142.380952,92.947233 C142.380952,79.330759 137.546118,67.7370227 127.876448,58.1660232 C118.206778,48.5950236 106.563707,43.8095238 92.947233,43.8095238 C79.5281,43.8095238 67.983698,48.5950236 58.3140283,58.1660232 C48.6443586,67.7370227 43.8095238,79.330759 43.8095238,92.947233 C43.8095238,106.563707 48.6443586,118.206778 58.3140283,127.876448 C67.983698,137.546118 79.62677,142.380952 93.243243,142.380952 L142.380952,142.380952 Z M142.380952,317.619048 L93.243243,317.619048 C79.62677,317.619048 67.983698,322.453882 58.3140283,332.123552 C48.6443586,341.793222 43.8095238,353.337623 43.8095238,366.756757 C43.8095238,380.37323 48.6443586,392.016302 58.3140283,401.685972 C67.983698,411.355641 79.62677,416.190476 93.243243,416.190476 C106.662377,416.190476 118.206778,411.355641 127.876448,401.685972 C137.546118,392.016302 142.380952,380.4719 142.380952,367.052767 L142.380952,317.619048 Z M317.619048,142.380952 L367.052767,142.380952 C380.4719,142.380952 392.016302,137.546118 401.685972,127.876448 C411.355641,118.206778 416.190476,106.563707 416.190476,92.947233 C416.190476,79.330759 411.404976,67.7370227 401.833977,58.1660232 C392.262977,48.5950236 380.669241,43.8095238 367.052767,43.8095238 C353.436293,43.8095238 341.793222,48.5950236 332.123552,58.1660232 C322.453882,67.7370227 317.619048,79.330759 317.619048,92.947233 L317.619048,142.380952 Z M317.619048,317.619048 L317.619048,367.052767 C317.619048,380.4719 322.453882,392.016302 332.123552,401.685972 C341.793222,411.355641 353.436293,416.190476 367.052767,416.190476 C380.669241,416.190476 392.262977,411.355641 401.833977,401.685972 C411.404976,392.016302 416.190476,380.37323 416.190476,366.756757 C416.190476,353.337623 411.355641,341.793222 401.685972,332.123552 C392.016302,322.453882 380.4719,317.619048 367.052767,317.619048 L317.619048,317.619048 Z"></path>
        </g>
    </g>
</svg>