<?xml version="1.0" encoding="UTF-8"?>
<svg width="512px" height="512px" viewBox="0 0 512 512" version="1.1" xmlns="http://www.w3.org/2000/svg" xmlns:xlink="http://www.w3.org/1999/xlink">
    <title>dk</title>
    <g id="dk" stroke="none" stroke-width="1" fill="none" fill-rule="evenodd">
        <g id="docker" transform="translate(16, 88)" fill="#003F8C" fill-rule="nonzero">
            <path d="M470.02568,129.516178 C459.226414,122.241674 434.32811,119.616854 415.204414,123.216608 C412.729582,105.217834 402.680266,89.5439014 384.381512,75.4448616 L373.882228,68.4703366 L366.907702,78.9696216 C353.108642,99.8182016 349.358898,134.165862 364.132892,156.81432 C357.608336,160.33908 344.78421,165.138752 327.835364,164.838774 L1.83256697,164.838774 C-4.69198867,202.936178 6.18227079,252.432808 34.8303196,286.405494 C62.6534246,319.328252 104.350585,336.052112 158.871871,336.052112 C276.913832,336.052112 364.282882,281.680816 405.155098,182.912542 C421.204004,183.212522 455.851644,182.987538 473.625434,149.01485 C474.750358,147.139978 478.575098,139.115526 480,136.190724 L470.02568,129.516178 Z" id="Stroke-1"></path>
            <polygon id="Stroke-2" points="86.726785 108.592604 37.2301562 108.592604 37.2301562 153.13957 86.80178 153.13957 86.80178 108.592604"></polygon>
            <polygon id="Stroke-3" points="145.297796 108.592604 95.726172 108.592604 95.726172 153.13957 145.297796 153.13957"></polygon>
            <polygon id="Stroke-4" points="203.868806 108.592604 154.297183 108.592604 154.297183 153.13957 203.868806 153.13957"></polygon>
            <polygon id="Stroke-5" points="262.439818 153.214564 212.868194 153.214564 212.868194 108.667599 262.439818 108.667599"></polygon>
            <polygon id="Stroke-6" points="321.085824 108.592604 271.5142 108.592604 271.5142 153.13957 321.085824 153.13957"></polygon>
            <polygon id="Stroke-7" points="145.297796 54.5212866 95.726172 54.5212866 95.726172 99.593217 145.297796 99.593217"></polygon>
            <polygon id="Stroke-8" points="203.868806 54.5212866 154.297183 54.5212866 154.297183 99.593217 203.868806 99.593217"></polygon>
            <polygon id="Stroke-9" points="262.439818 54.5212866 212.868194 54.5212866 212.868194 99.593217 262.439818 99.593217"></polygon>
            <polygon id="Stroke-10" points="262.439818 -2.84217094e-14 212.868194 -2.84217094e-14 212.868194 45.5218996 262.439818 45.5218996"></polygon>
        </g>
    </g>
</svg>