<?xml version="1.0" encoding="UTF-8"?>
<svg width="512px" height="512px" viewBox="0 0 512 512" version="1.1" xmlns="http://www.w3.org/2000/svg" xmlns:xlink="http://www.w3.org/1999/xlink">
    <title>fin</title>
    <defs>
        <linearGradient x1="18.6817014%" y1="40.3691835%" x2="100%" y2="87.6668463%" id="linearGradient-1">
            <stop stop-color="#A45FC4" offset="0%"></stop>
            <stop stop-color="#03A3DB" offset="100%"></stop>
        </linearGradient>
    </defs>
    <g id="fin" stroke="none" stroke-width="1" fill="none" fill-rule="evenodd">
        <g id="jellyfin" transform="translate(26, 27)" fill="url(#linearGradient-1)" fill-rule="nonzero">
            <path d="M230.048101,2.84217094e-14 L231.940027,0.101957 C295.489158,6.8107579 468.501221,342.581253 459.674352,408.671762 L459.278369,410.654519 C441.998798,475.425984 10.5304463,474.902684 0.421850805,408.671762 C-9.7876395,341.770628 168.12079,2.84217094e-14 230.048101,2.84217094e-14 Z M230.03113,92.388493 L228.799656,92.454817 C187.426836,96.818994 74.016747,315.243337 80.594595,358.344381 C83.914922,380.102888 157.102736,390.963351 230.229937,390.963351 L232.42581,390.960086 C304.884376,390.744548 376.594582,379.8601 379.467665,358.344381 L379.605692,356.987734 C382.978164,310.472122 269.929059,92.388493 230.03113,92.388493 Z M230.015977,176.137589 C250.491933,176.137589 308.891623,289.192359 305.942242,311.266048 C302.994073,333.339737 157.464589,333.387014 154.089712,311.266048 C150.713622,289.146294 209.540021,176.137589 230.015977,176.137589 Z" id="path-2"></path>
        </g>
    </g>
</svg>