<?xml version="1.0" encoding="UTF-8"?>
<svg width="512px" height="512px" viewBox="0 0 512 512" version="1.1" xmlns="http://www.w3.org/2000/svg" xmlns:xlink="http://www.w3.org/1999/xlink">
    <title>gitea</title>
    <g id="gitea" stroke="none" stroke-width="1" fill="none" fill-rule="evenodd">
        <g transform="translate(16, 108)" fill-rule="nonzero">
            <path d="M297.889863,260.608536 L201.099572,214.008776 C191.565461,209.425193 187.446725,197.813449 192.099371,188.187925 L238.625831,91.2451459 C243.202204,81.6960148 254.795683,77.5707902 264.406066,82.2307661 C277.525003,88.5713892 285.076018,92.1618625 285.076018,92.1618625 L284.999745,8.74065298 L297.737317,8.66425993 L297.81359,98.1205203 C297.81359,98.1205203 341.594226,116.607638 361.196357,128.754133 C364.018454,130.511173 368.976192,133.94886 371.03556,139.754732 C372.63729,144.414708 372.561017,149.762221 370.272831,154.498591 L323.746371,251.44137 C319.017452,261.143287 307.423974,265.268512 297.889863,260.608536" id="Stroke-3" fill="#FFFFFF"></path>
            <path d="M471.142667,5.1346961 C468.012058,2.00424941 463.812461,2.08060176 463.812461,2.08060176 C463.812461,2.08060176 374.322857,7.11985741 327.974572,8.18879043 C317.819182,8.4178475 307.740148,8.64690458 297.737471,8.72325694 L297.737471,98.2082209 C293.537873,96.2230596 289.261919,94.1615459 285.062322,92.1763846 C285.062322,64.3841261 284.985966,8.7996093 284.985966,8.7996093 C262.842634,9.10501873 216.87613,7.11985741 216.87613,7.11985741 C216.87613,7.11985741 108.908298,1.69883997 97.1494249,0.629906956 C89.6665058,0.171792806 79.9692535,-0.973492568 67.3704612,1.77519233 C60.7274615,3.14953478 41.7910948,7.42526685 26.2907624,22.3139767 C-8.06958037,52.9312724 0.711396126,101.644077 1.78038457,108.973903 C3.07844196,117.907129 7.04897046,142.721646 25.9853372,164.329363 C60.9565305,207.163036 136.243859,206.170456 136.243859,206.170456 C136.243859,206.170456 145.482974,228.236287 159.608892,248.546014 C178.697972,273.818645 198.321545,293.517553 217.410625,295.884477 C265.515105,295.884477 361.647708,295.808124 361.647708,295.808124 C361.647708,295.808124 370.810466,295.884477 383.256546,287.943831 C393.94643,281.453881 403.49097,270.077379 403.49097,270.077379 C403.49097,270.077379 413.340935,259.540754 427.085072,235.489761 C431.28467,228.083582 434.79706,220.906461 437.851313,214.111101 C437.851313,214.111101 480,124.702489 480,37.6608007 C479.160081,11.3192371 472.669794,6.66174326 471.142667,5.1346961 M91.5754137,160.969859 C71.7991276,154.479909 63.3999327,146.691968 63.3999327,146.691968 C63.3999327,146.691968 48.815876,136.460752 41.4856696,116.30373 C28.8868772,82.5559874 40.4166811,61.9408507 40.4166811,61.9408507 C40.4166811,61.9408507 46.8306118,44.7615701 69.8138633,39.0351432 C80.3510351,36.2101059 93.4843217,36.6682201 93.4843217,36.6682201 C93.4843217,36.6682201 98.9056202,82.0215209 105.472264,108.592142 C110.969918,130.88703 124.40863,167.917924 124.40863,167.917924 C124.40863,167.917924 104.479631,165.551001 91.5754137,160.969859 M320.873435,243.124997 C320.873435,243.124997 316.215699,254.196089 305.907596,254.88326 C301.47893,255.18867 298.042896,253.967032 298.042896,253.967032 C298.042896,253.967032 297.813827,253.890679 293.996011,252.363632 L207.789729,210.369835 C207.789729,210.369835 199.46689,206.017751 198.01612,198.458867 C196.336281,192.274326 200.077741,184.63909 200.077741,184.63909 L241.539221,99.2008015 C241.539221,99.2008015 245.204324,91.7946228 250.854692,89.274995 C251.31283,89.0459379 252.610887,88.5114714 254.290726,88.1297096 C260.475588,86.5263101 268.034863,90.2675756 268.034863,90.2675756 L352.561306,131.268792 C352.561306,131.268792 362.182202,135.620876 364.243823,143.637874 C365.694593,149.287949 363.862041,154.327204 362.869409,156.77048 C358.058961,168.528743 320.873435,243.124997 320.873435,243.124997" id="Stroke-2" fill="#609926"></path>
            <path d="M245.335226,181.107311 C239.078183,181.183572 233.584194,185.530471 232.134391,191.631382 C230.684589,197.732293 233.660499,204.061988 239.078183,206.88366 C244.953699,209.934115 252.431628,208.256365 256.399509,202.765545 C260.291085,197.350986 259.680642,189.87737 255.026012,185.149164 L273.339309,147.704823 C274.48389,147.781085 276.162609,147.857346 278.070244,147.323516 C281.198765,146.637164 283.487927,144.578106 283.487927,144.578106 C286.692754,145.950811 290.050192,147.476039 293.56024,149.230051 C297.2229,151.060324 300.656643,152.966859 303.785164,154.797132 C304.471913,155.178439 305.158662,155.636007 305.921716,156.246099 C307.142602,157.237497 308.516099,158.610202 309.50807,160.440475 C310.957872,164.634851 308.058267,171.803422 308.058267,171.803422 C306.303243,177.599287 294.018073,202.765545 294.018073,202.765545 C287.837335,202.613022 282.343346,206.578614 280.512017,212.298218 C278.528076,218.475391 281.351376,225.491438 287.303197,228.541894 C293.255019,231.592349 300.580338,229.838337 304.471913,224.50004 C308.287183,219.314266 307.981962,212.069434 303.632554,207.264967 C305.082356,204.443295 306.455854,201.621624 307.905656,198.64743 C311.720926,190.716246 318.206886,175.463968 318.206886,175.463968 C318.893634,174.167525 322.556294,167.609045 320.267131,159.220293 C318.359496,150.526494 310.652651,146.484641 310.652651,146.484641 C301.343392,140.459991 288.371473,134.89291 288.371473,134.89291 C288.371473,134.89291 288.371473,131.766193 287.532114,129.478352 C286.692754,127.114249 285.395562,125.589021 284.556203,124.673884 C288.142557,117.27653 291.728911,109.955436 295.315265,102.558082 C292.186743,101.032854 289.134527,99.5076263 286.006006,97.9061372 C282.343346,105.379753 278.604382,112.929631 274.941722,120.403246 C269.82926,120.326985 265.098325,123.072395 262.656552,127.571817 C260.062169,132.376284 260.596306,138.324673 264.106355,142.671572 L245.335226,181.107311 Z" id="Stroke-1" fill="#609926"></path>
        </g>
    </g>
</svg>