<?xml version="1.0" encoding="UTF-8"?>
<svg width="512px" height="512px" viewBox="0 0 512 512" version="1.1" xmlns="http://www.w3.org/2000/svg" xmlns:xlink="http://www.w3.org/1999/xlink">
    <title>docker</title>
    <g id="docker" stroke="none" stroke-width="1" fill="none" fill-rule="evenodd">
        <g transform="translate(6, 114)" fill-rule="nonzero">
            <path d="M289.103506,89.6493806 L333.928197,89.6493806 L333.928197,135.418853 L356.602981,135.418853 C367.100567,135.418853 377.808104,133.529288 387.78081,130.170061 C392.6097,128.490447 398.068444,126.180978 402.897333,123.34663 C396.598782,115.053537 393.344531,104.660928 392.399748,94.3732941 C391.140038,80.4115053 393.974386,62.1457063 403.422213,51.2282175 L408.146126,45.7694729 L413.709846,50.2834347 C427.881587,61.620827 439.743859,77.472181 441.843376,95.6330044 C458.849464,90.5941634 478.794877,91.8538738 493.806424,100.461894 L500,104.031073 L496.745748,110.329624 C484.04367,135.103926 457.484778,142.767163 431.555742,141.402477 C392.714675,238.08524 308.314088,283.854713 205.857653,283.854713 C152.949821,283.854713 104.346,264.119252 76.7373504,217.090069 L76.3174468,216.355238 L72.3283644,208.167121 C62.9855134,187.486878 59.8362378,164.812093 61.9357549,142.242284 L62.5656099,135.418853 L100.881797,135.418853 L100.881797,89.6493806 L145.706488,89.6493806 L145.706488,44.8246905 L235.355868,44.8246905 L235.355868,0 L289.103506,0 L289.103506,89.6493806 Z" id="Stroke-1" fill="#394D54"></path>
            <path d="M434.285114,106.550493 C437.329414,83.2458531 419.798446,64.8750784 408.985933,56.1620828 C396.493806,70.6487508 394.604241,108.440059 414.12975,124.396389 C403.212261,134.159143 380.117573,142.872139 356.602981,142.87214 L69.2840648,142.87214 C66.9745959,167.541466 71.2786062,190.21625 81.1463364,209.636784 L84.4005878,215.620407 C86.5001049,219.084611 88.7045977,222.548814 91.2240184,225.803065 C102.981314,226.537896 113.898803,226.852824 123.871509,226.642872 C143.397018,226.222969 159.458324,223.9135 171.530548,219.714466 C173.315138,219.084611 175.309679,220.029393 175.939534,221.813983 C176.569389,223.598572 175.624607,225.593113 173.840017,226.222969 C172.265379,226.747848 170.585766,227.272727 168.801176,227.797607 C159.248373,230.526979 149.065715,232.311568 135.838757,233.151375 C136.573588,233.151375 134.99895,233.256351 134.99895,233.256351 C134.579047,233.256351 133.949192,233.361327 133.529288,233.361327 C128.385471,233.676254 122.716775,233.676254 117.048079,233.676254 C110.749527,233.676254 104.660928,233.571279 97.7325215,233.256351 L97.5225697,233.361327 C121.457065,260.235146 158.828469,276.401428 205.752677,276.401428 C305.059836,276.401428 389.250472,232.416544 426.516901,133.634264 C452.970817,136.363636 478.374973,129.645182 489.922318,107.075372 C471.656519,96.3678351 447.931975,99.7270625 434.285114,106.550493 L434.285114,106.550493 Z" id="Stroke-2" fill="#00AADA"></path>
            <path d="M434.285114,106.550493 C437.329414,83.2458531 419.798446,64.8750784 408.985933,56.1620828 C396.493806,70.6487508 394.604241,108.440059 414.12975,124.396389 C403.212261,134.159143 380.117573,142.872139 356.602981,142.87214 L86.2901531,142.87214 C85.1354188,180.558471 99.0972076,209.21688 123.871509,226.537896 C143.397018,226.117993 159.458324,223.808524 171.530548,219.60949 C173.315138,218.979635 175.309679,219.924417 175.939534,221.709007 C176.569389,223.493597 175.624607,225.488138 173.840017,226.117993 C172.265379,226.642872 170.585766,227.167752 168.801176,227.692631 C159.248373,230.422003 148.120932,232.52152 134.99895,233.256351 L134.684023,232.941423 C168.486248,250.262439 217.509973,250.262439 273.672055,228.637413 C336.657569,204.492966 395.234096,158.30359 436.17468,105.605711 C435.439849,106.025614 434.914969,106.340542 434.285114,106.550493 Z" id="Stroke-3" fill="#24B8EB"></path>
            <path d="M69.9139198,172.895234 C71.6985094,186.122192 75.5826161,198.404367 81.2513121,209.741759 L84.5055639,215.725383 C86.605081,219.189586 88.8095738,222.653789 91.3289945,225.908041 C103.191266,226.642872 114.003779,226.9578 123.976485,226.747848 C143.501994,226.327944 159.5633,224.018476 171.635524,219.819442 C173.420113,219.189587 175.414654,220.134369 176.04451,221.918959 C176.674365,223.703548 175.729582,225.698089 173.944993,226.327944 C172.370355,226.852824 170.690741,227.377703 168.906152,227.902582 C159.353349,230.631954 148.330884,232.52152 135.103926,233.361327 C134.684022,233.361327 133.844216,233.361327 133.424312,233.466303 C128.280495,233.78123 122.716775,233.886206 116.943103,233.886206 C110.644552,233.886206 104.241025,233.78123 97.417594,233.466303 C121.352089,260.340121 159.038421,276.506403 205.962629,276.506403 C290.993072,276.506403 364.896074,244.278816 407.831199,173.00021 L69.9139198,173.00021 L69.9139198,172.895234 Z" id="Stroke-4" fill="#008BB8"></path>
            <path d="M88.9145495,172.895234 C93.9533905,196.094898 106.235566,214.255721 123.976485,226.642872 C143.501994,226.222969 159.5633,223.9135 171.635524,219.714466 C173.420113,219.084611 175.414654,220.029393 176.04451,221.813983 C176.674365,223.598572 175.729582,225.593113 173.944993,226.222969 C172.370355,226.747848 170.690741,227.272727 168.906152,227.797607 C159.353349,230.526979 148.120932,232.416544 134.893974,233.256351 C168.6962,250.577367 217.509972,250.367416 273.672055,228.742389 C307.684232,215.725383 340.331724,196.30485 369.724963,172.895234 L88.9145495,172.895234 L88.9145495,172.895234 Z" id="Stroke-5" fill="#039BC6"></path>
            <path d="M140.877598,100.356918 L143.921898,100.356918 L143.921898,132.689481 L140.877598,132.689481 L140.877598,100.356918 Z M134.99895,100.356918 L138.148226,100.356918 L138.148226,132.689481 L134.99895,132.689481 L134.99895,100.356918 Z M129.120302,100.356918 L132.269578,100.356918 L132.269578,132.689481 L129.120302,132.689481 L129.120302,100.356918 Z M123.241654,100.356918 L126.39093,100.356918 L126.39093,132.689481 L123.241654,132.689481 L123.241654,100.356918 Z M117.363007,100.356918 L120.512282,100.356918 L120.512282,132.689481 L117.363007,132.689481 L117.363007,100.356918 Z M111.589335,100.356918 L114.633634,100.356918 L114.633634,132.689481 L111.589335,132.689481 L111.589335,100.356918 Z M108.335083,97.1026666 L147.176149,97.1026666 L147.176149,135.943733 L108.335083,135.943733 L108.335083,97.1026666 Z M185.702289,55.5322274 L188.746588,55.5322274 L188.746588,87.8647909 L185.702289,87.8647909 L185.702289,55.5322274 Z M179.82364,55.5322274 L182.972916,55.5322274 L182.972916,87.8647909 L179.82364,87.8647909 L179.82364,55.5322274 Z M173.944993,55.5322274 L177.094268,55.5322274 L177.094268,87.8647909 L173.944993,87.8647909 L173.944993,55.5322274 Z M168.066345,55.5322274 L171.215621,55.5322274 L171.215621,87.8647909 L168.066345,87.8647909 L168.066345,55.5322274 Z M162.187697,55.5322274 L165.336972,55.5322274 L165.336972,87.8647909 L162.187697,87.8647909 L162.187697,55.5322274 Z M156.414025,55.5322274 L159.458325,55.5322274 L159.458325,87.8647909 L156.414025,87.8647909 L156.414025,55.5322274 L156.414025,55.5322274 Z M153.159773,52.2779761 L192.00084,52.2779761 L192.00084,91.1190427 L153.159773,91.1190427 L153.159773,52.2779761 Z" id="Stroke-6" fill="#00ACD3"></path>
            <path d="M185.702289,100.356918 L188.746588,100.356918 L188.746588,132.689481 L185.702289,132.689481 L185.702289,100.356918 Z M179.82364,100.356918 L182.972916,100.356918 L182.972916,132.689481 L179.82364,132.689481 L179.82364,100.356918 Z M173.944993,100.356918 L177.094268,100.356918 L177.094268,132.689481 L173.944993,132.689481 L173.944993,100.356918 Z M168.066345,100.356918 L171.215621,100.356918 L171.215621,132.689481 L168.066345,132.689481 L168.066345,100.356918 Z M162.187697,100.356918 L165.336972,100.356918 L165.336972,132.689481 L162.187697,132.689481 L162.187697,100.356918 Z M156.414025,100.356918 L159.458325,100.356918 L159.458325,132.689481 L156.414025,132.689481 L156.414025,100.356918 L156.414025,100.356918 Z M153.159773,97.1026666 L192.00084,97.1026666 L192.00084,135.943733 L153.159773,135.943733 L153.159773,97.1026666 Z" id="Stroke-7" fill="#20C2EF"></path>
            <path d="M230.526979,100.356918 L233.571279,100.356918 L233.571279,132.689481 L230.526979,132.689481 L230.526979,100.356918 Z M224.648331,100.356918 L227.797607,100.356918 L227.797607,132.689481 L224.648331,132.689481 L224.648331,100.356918 Z M218.769683,100.356918 L221.918959,100.356918 L221.918959,132.689481 L218.769683,132.689481 L218.769683,100.356918 Z M212.891035,100.356918 L216.040311,100.356918 L216.040311,132.689481 L212.891035,132.689481 L212.891035,100.356918 Z M206.907411,100.356918 L210.056687,100.356918 L210.056687,132.689481 L206.907411,132.689481 L206.907411,100.356918 Z M201.238715,100.356918 L204.283015,100.356918 L204.283015,132.689481 L201.238715,132.689481 L201.238715,100.356918 Z M197.984463,97.1026666 L236.82553,97.1026666 L236.82553,135.943733 L197.984463,135.943733 L197.984463,97.1026666 L197.984463,97.1026666 Z" id="Stroke-8" fill="#00ACD3"></path>
            <path d="M230.526979,55.5322274 L233.571279,55.5322274 L233.571279,87.8647909 L230.526979,87.8647909 L230.526979,55.5322274 Z M224.648331,55.5322274 L227.797607,55.5322274 L227.797607,87.8647909 L224.648331,87.8647909 L224.648331,55.5322274 Z M218.769683,55.5322274 L221.918959,55.5322274 L221.918959,87.8647909 L218.769683,87.8647909 L218.769683,55.5322274 Z M212.891035,55.5322274 L216.040311,55.5322274 L216.040311,87.8647909 L212.891035,87.8647909 L212.891035,55.5322274 Z M206.907411,55.5322274 L210.056687,55.5322274 L210.056687,87.8647909 L206.907411,87.8647909 L206.907411,55.5322274 Z M201.238715,55.5322274 L204.283015,55.5322274 L204.283015,87.8647909 L201.238715,87.8647909 L201.238715,55.5322274 Z M197.984463,52.2779761 L236.82553,52.2779761 L236.82553,91.1190427 L197.984463,91.1190427 L197.984463,52.2779761 L197.984463,52.2779761 Z M275.351669,100.356918 L278.395969,100.356918 L278.395969,132.689481 L275.351669,132.689481 L275.351669,100.356918 Z M269.473021,100.356918 L272.622297,100.356918 L272.622297,132.689481 L269.473021,132.689481 L269.473021,100.356918 Z M263.594373,100.356918 L266.743649,100.356918 L266.743649,132.689481 L263.594373,132.689481 L263.594373,100.356918 Z M257.610749,100.356918 L260.760025,100.356918 L260.760025,132.689481 L257.610749,132.689481 L257.610749,100.356918 Z M251.732102,100.356918 L254.881377,100.356918 L254.881377,132.689481 L251.732102,132.689481 L251.732102,100.356918 Z M246.063405,100.356918 L249.107705,100.356918 L249.107705,132.689481 L246.063405,132.689481 L246.063405,100.356918 Z M242.809154,97.1026666 L281.65022,97.1026666 L281.65022,135.943733 L242.809154,135.943733 L242.809154,97.1026666 Z" id="Stroke-9" fill="#20C2EF"></path>
            <path d="M275.351669,55.5322274 L278.395969,55.5322274 L278.395969,87.8647909 L275.351669,87.8647909 L275.351669,55.5322274 Z M269.473021,55.5322274 L272.622297,55.5322274 L272.622297,87.8647909 L269.473021,87.8647909 L269.473021,55.5322274 Z M263.594373,55.5322274 L266.743649,55.5322274 L266.743649,87.8647909 L263.594373,87.8647909 L263.594373,55.5322274 Z M257.610749,55.5322274 L260.760025,55.5322274 L260.760025,87.8647909 L257.610749,87.8647909 L257.610749,55.5322274 Z M251.732102,55.5322274 L254.881377,55.5322274 L254.881377,87.8647909 L251.732102,87.8647909 L251.732102,55.5322274 Z M246.063405,55.5322274 L249.107705,55.5322274 L249.107705,87.8647909 L246.063405,87.8647909 L246.063405,55.5322274 Z M242.809154,52.2779761 L281.65022,52.2779761 L281.65022,91.1190427 L242.809154,91.1190427 L242.809154,52.2779761 Z" id="Stroke-10" fill="#00ACD3"></path>
            <path d="M275.351669,10.7075374 L278.395969,10.7075374 L278.395969,43.0401009 L275.351669,43.0401009 L275.351669,10.7075374 Z M269.473021,10.7075374 L272.622297,10.7075374 L272.622297,43.0401009 L269.473021,43.0401009 L269.473021,10.7075374 Z M263.594373,10.7075374 L266.743649,10.7075374 L266.743649,43.0401009 L263.594373,43.0401009 L263.594373,10.7075374 Z M257.610749,10.7075374 L260.760025,10.7075374 L260.760025,43.0401009 L257.610749,43.0401009 L257.610749,10.7075374 Z M251.732102,10.7075374 L254.881377,10.7075374 L254.881377,43.0401009 L251.732102,43.0401009 L251.732102,10.7075374 Z M246.063405,10.7075374 L249.107705,10.7075374 L249.107705,43.0401009 L246.063405,43.0401009 L246.063405,10.7075374 Z M242.809154,7.45328559 L281.65022,7.45328559 L281.65022,46.2943522 L242.809154,46.2943522 L242.809154,7.45328559 L242.809154,7.45328559 Z" id="Stroke-11" fill="#20C2EF"></path>
            <path d="M320.176359,100.356918 L323.220659,100.356918 L323.220659,132.689481 L320.176359,132.689481 L320.176359,100.356918 Z M314.297711,100.356918 L317.446987,100.356918 L317.446987,132.689481 L314.297711,132.689481 L314.297711,100.356918 Z M308.314088,100.356918 L311.463363,100.356918 L311.463363,132.689481 L308.314088,132.689481 L308.314088,100.356918 Z M302.43544,100.356918 L305.584715,100.356918 L305.584715,132.689481 L302.43544,132.689481 L302.43544,100.356918 Z M296.556792,100.356918 L299.706068,100.356918 L299.706068,132.689481 L296.556792,132.689481 L296.556792,100.356918 Z M290.78312,100.356918 L293.82742,100.356918 L293.82742,132.689481 L290.78312,132.689481 L290.78312,100.356918 L290.78312,100.356918 Z M287.633844,97.1026666 L326.474911,97.1026666 L326.474911,135.943733 L287.633844,135.943733 L287.633844,97.1026666 Z" id="Stroke-12" fill="#00ACD3"></path>
            <path d="M189.586395,198.929246 C195.465043,198.929246 200.293932,203.758135 200.293932,209.636784 C200.293932,215.515432 195.465043,220.344321 189.586395,220.344321 C183.707747,220.344321 178.878858,215.515432 178.878858,209.636784 C178.878858,203.758135 183.602771,198.929246 189.586395,198.929246" id="round-1" fill="#D4EDF1"></path>
            <path d="M189.586395,201.973546 C190.531178,201.973546 191.47596,202.183498 192.315767,202.498425 C191.370985,203.023305 190.74113,204.073063 190.74113,205.227798 C190.74113,206.907411 192.105816,208.377073 193.890405,208.377073 C195.045139,208.377073 196.094898,207.747218 196.619777,206.69746 C197.039681,207.642243 197.249633,208.587025 197.249633,209.636784 C197.249633,213.835818 193.78543,217.300021 189.586395,217.300021 C185.38736,217.300021 181.923158,213.835818 181.923158,209.636784 C181.923158,205.437749 185.282385,201.973546 189.586395,201.973546 M0,176.674365 L498.530338,176.674365 C487.717825,173.944993 464.203233,170.165862 468.08734,155.994121 C448.351879,178.878858 400.797816,172.055427 388.725593,160.718035 C375.393659,180.138568 297.501575,172.790258 292.04283,157.673735 C275.246693,177.30422 223.283644,177.30422 206.487508,157.673735 C201.028763,172.790258 123.136679,180.138568 109.804745,160.718035 C97.8374972,171.950452 50.178459,178.773882 30.4429982,155.994121 C34.3271049,170.270838 10.8125131,173.944993 0,176.674365" id="Stroke-13" fill="#394D54"></path>
            <path d="M218.034852,276.191476 C191.475961,263.594373 176.884317,246.483309 168.801176,227.797607 C158.933445,230.631955 147.071173,232.416544 133.319336,233.151375 C128.175519,233.466303 122.716775,233.571279 116.943103,233.571279 C110.329624,233.571279 103.401217,233.361327 96.052908,232.941423 C120.407307,257.295822 150.325426,275.981524 205.752677,276.296452 C209.951711,276.401427 213.940794,276.296452 218.034852,276.191476 L218.034852,276.191476 Z" id="path-1" fill="#BFDBE0"></path>
            <path d="M178.668906,245.013647 C174.994751,240.079781 171.425572,233.78123 168.801176,227.797607 C158.933445,230.631955 147.071173,232.416544 133.319336,233.151375 C142.767163,238.295192 156.309049,243.019106 178.668906,245.013647 Z" id="path-2" fill="#D4EDF1"></path>
        </g>
    </g>
</svg>