<?xml version="1.0" encoding="UTF-8"?>
<svg width="512px" height="512px" viewBox="0 0 512 512" version="1.1" xmlns="http://www.w3.org/2000/svg" xmlns:xlink="http://www.w3.org/1999/xlink">
    <title>immich</title>
    <g id="immich" stroke="none" stroke-width="1" fill="none" fill-rule="evenodd">
        <g transform="translate(26, 31)" fill-rule="nonzero">
            <path d="M214.540831,134.482904 C244.661767,161.141953 268.920239,189.721466 284.53663,216.658477 C311.372565,168.672187 329.288457,111.664778 329.51588,75.3528783 C329.51588,75.1001859 329.51588,74.8727627 329.51588,74.6453396 C329.51588,20.922932 275.919819,0 229.752914,0 C183.58601,0 129.989949,20.922932 129.989949,74.6453396 C129.989949,75.3781476 129.989949,76.363648 129.989949,77.5513023 C155.714037,88.9729995 186.214011,109.415816 214.540831,134.482904 Z" id="Stroke-5" fill="#FA2921"></path>
            <path d="M50.2402225,280.993966 C69.0658074,260.045765 97.9485505,237.353986 130.520603,218.174632 C165.190002,197.782354 199.859402,183.530501 230.308838,176.985768 C192.960899,136.656058 144.29234,101.986659 109.825094,90.5396925 C109.572402,90.4638848 109.370248,90.388077 109.142825,90.3122693 C58.0484181,73.7103776 21.5849026,118.234781 7.30778109,162.127454 C-6.96934039,206.020126 -3.6338005,263.482382 47.4606059,280.084273 C48.1934139,280.336966 49.1031066,280.640197 50.2402225,280.993966 Z" id="Stroke-4" fill="#ED79B5"></path>
            <path d="M452.703433,161.394646 C438.426311,117.476704 401.988065,72.9775696 350.868389,89.5794613 C350.160851,89.8068845 349.225889,90.1101154 348.114042,90.4638848 C345.18281,118.462204 335.17619,153.813873 320.090453,188.483273 C304.044485,225.376365 284.359745,257.291418 263.588429,280.438043 C317.51299,291.126932 377.274747,290.545739 411.868338,279.553619 C412.121031,279.477812 412.348454,279.402004 412.550608,279.326196 C463.645014,262.749574 466.955285,205.312588 452.703433,161.394646 Z" id="Stroke-3" fill="#FFB400"></path>
            <path d="M184.167203,323.926407 C175.474584,284.658006 172.644429,247.259529 175.828353,216.304708 C125.921601,239.350256 77.910042,274.929348 56.3806482,304.19113 C56.2290327,304.393284 56.1026865,304.595438 55.9763403,304.772322 C24.3897884,348.235418 55.4709555,396.676554 92.8188945,423.815719 C130.166834,450.954885 185.834973,465.535237 217.421525,422.072142 C217.851102,421.46568 218.432294,420.682333 219.139833,419.722102 C205.014327,395.337284 192.354437,360.844769 184.167203,323.926407 Z" id="Stroke-2" fill="#1E83F7"></path>
            <path d="M403.200989,301.967437 C375.657515,307.85517 338.966576,309.244978 301.315407,305.606207 C261.288928,301.740013 224.850682,292.895779 196.397516,280.286427 C202.891711,334.867989 221.89418,391.521629 243.069805,421.036103 C243.22142,421.238257 243.347766,421.440411 243.474113,421.617295 C275.060665,465.080391 330.703535,450.500038 368.076743,423.360873 C405.424682,396.221708 436.505849,347.805841 404.919297,304.317476 C404.48972,303.711014 403.908527,302.902399 403.200989,301.967437 Z" id="Stroke-1" fill="#18C249"></path>
        </g>
    </g>
</svg>