<?xml version="1.0" encoding="UTF-8"?>
<svg width="512px" height="512px" viewBox="0 0 512 512" version="1.1" xmlns="http://www.w3.org/2000/svg" xmlns:xlink="http://www.w3.org/1999/xlink">
    <title>mi</title>
    <g id="mi" stroke="none" stroke-width="1" fill="none" fill-rule="evenodd">
        <g transform="translate(26, 26)" fill-rule="nonzero" id="Stroke-1">
            <path d="M412.053214,48.0617857 C368.657143,4.83 306.253214,0 230,0 C153.648214,0 91.1539286,4.8875 47.7742857,48.2342857 C4.40285714,91.5646429 0,153.960357 0,230.221786 C0,306.499643 4.40285714,368.911786 47.7907143,412.258571 C91.1703571,455.613571 153.656429,460 230,460 C306.343571,460 368.821429,455.613571 412.201071,412.258571 C455.588929,368.903571 460,306.499643 460,230.221786 C460,153.861786 455.539643,91.4003571 412.053214,48.0617857 L412.053214,48.0617857 Z" fill="#FF6900"></path>
            <g transform="translate(90.3571, 143.75)" fill="#FFFFFF">
                <path d="M272.755357,0 C274.340714,0 275.655,1.27321429 275.655,2.84214286 L275.655,173.296786 C275.655,174.841071 274.340714,176.1225 272.755357,176.1225 L235.405,176.1225 C233.803214,176.1225 232.505357,174.841071 232.505357,173.296786 L232.505357,2.84214286 C232.505357,1.27321429 233.803214,0 235.405,0 L272.755357,0 Z" id="路径"></path>
                <path d="M110.6875,0 C138.8625,0 168.318929,1.28964286 182.841786,15.8289286 C197.13447,30.1377009 198.676579,58.6225335 198.736429,86.2845312 L198.736429,173.296786 C198.736429,174.841071 197.438571,176.1225 195.836786,176.1225 L158.502857,176.1225 C156.901071,176.1225 155.595,174.841071 155.595,173.296786 L155.595,84.7878571 C155.553929,69.3367857 154.666786,53.4585714 146.698929,45.4660714 C139.84,38.5907143 127.042143,37.0135714 113.735,36.685 L46.0492857,36.685 C44.4557143,36.685 43.1578571,37.9664286 43.1578571,39.5107143 L43.1578571,173.296786 C43.1578571,174.841071 41.8435714,176.1225 40.25,176.1225 L2.88321429,176.1225 C1.28964286,176.1225 0,174.841071 0,173.296786 L0,2.84214286 C0,1.27321429 1.28964286,0 2.88321429,0 L110.6875,0 Z" id="路径"></path>
                <path d="M119.049643,67.8828571 C120.635,67.8828571 121.924643,69.1560714 121.924643,70.7085714 L121.924643,173.296786 C121.924643,174.841071 120.635,176.1225 119.049643,176.1225 L79.8182143,176.1225 C78.2082143,176.1225 76.9103571,174.841071 76.9103571,173.296786 L76.9103571,70.7085714 C76.9103571,69.1560714 78.2082143,67.8828571 79.8182143,67.8828571 L119.049643,67.8828571 Z" id="路径"></path>
            </g>
        </g>
    </g>
</svg>