<?xml version="1.0" encoding="UTF-8"?>
<svg width="512px" height="512px" viewBox="0 0 512 512" version="1.1" xmlns="http://www.w3.org/2000/svg" xmlns:xlink="http://www.w3.org/1999/xlink">
    <title>por</title>
    <g id="por" stroke="none" stroke-width="1" fill="none" fill-rule="evenodd">
        <g id="portainer" transform="translate(87, 16)" fill="#13BEF9" fill-rule="nonzero">
            <path d="M113.930039,311.820661 C129.301299,311.820661 143.046026,318.781467 152.449445,329.774033 C160.586935,324.094433 170.351761,320.796744 181.021513,320.796744 C208.871168,320.796744 231.476601,343.69685 231.476601,371.911129 C231.476601,377.773241 230.572078,383.269523 228.764238,388.582088 C234.91218,397.009024 238.709568,407.635761 238.709568,418.994156 C238.709568,447.207228 216.105341,470.107334 188.255283,470.107334 C175.958195,470.107334 164.746534,465.710951 156.066331,458.381904 C146.843012,471.389747 131.833561,480 114.834562,480 C95.3033,480 78.304301,468.641605 69.805404,452.153963 C66.369424,452.885621 62.933041,453.252657 59.315754,453.252657 C31.466902,453.252657 8.681369,430.35255 8.681369,402.139478 C8.681369,373.926406 31.285998,351.025897 59.315754,351.025897 C61.124799,350.842581 62.933041,350.842581 64.742087,351.20841 C69.985505,328.675339 90.05948,311.820661 113.930039,311.820661 Z M145.216318,248.609872 C151.727274,259.784548 154.982753,272.608672 154.982753,285.616514 C154.982753,296.974909 153.535114,307.601645 149.014912,317.127276 C139.430186,307.783756 125.324856,303.753604 111.038219,303.753604 C85.720424,303.753604 64.019916,319.692904 58.413482,343.508388 C56.424336,343.325875 55.158004,343.142559 53.168858,343.142559 C48.286846,343.325875 43.584936,344.05874 38.882623,345.341152 C20.798598,331.784164 8.8633188,310.166068 8.8633188,285.616514 C8.8633188,272.608672 12.2992996,259.784548 18.628547,248.609872 L145.216318,248.609872 Z M194.221154,0 L194.221154,20.67096 L313.897968,90.685048 L338.894558,90.685048 L338.894558,105.707765 L219.535734,105.707765 L219.535734,328.661791 C215.557039,324.081689 210.493721,320.784402 204.707187,317.852542 L204.707187,105.707765 L194.221154,105.707765 L194.221154,315.841687 C190.766238,314.167983 183.19587,314.010191 180.418006,314.004784 L180.102418,314.00479 C179.811994,314.005373 179.598879,314.007406 179.479428,314.008387 L179.391804,314.008923 L179.391804,105.707765 L144.129483,105.707765 L144.129483,139.419131 L144.131896,178.44105 L105.793393,178.44105 L105.793393,105.707765 L2.84217094e-14,105.707765 L2.84217094e-14,90.685048 L58.647251,90.685048 L179.22095,20.1455327 L179.391804,20.4450303 L179.391804,0 L194.221154,0 Z M57.865301,203.722463 L57.865301,242.744383 L19.527603,242.744383 L19.527603,203.722463 L57.865301,203.722463 Z M101.089834,203.722463 L101.089834,242.744383 L62.751734,242.744383 L62.751734,203.722463 L101.089834,203.722463 Z M144.131453,203.722463 L144.131453,242.744383 L105.793353,242.744383 L105.793353,203.722463 L144.131453,203.722463 Z M57.865301,160.293709 L57.865301,199.315628 L19.527603,199.315628 L19.527603,160.293709 L57.865301,160.293709 Z M101.089834,160.293709 L101.089834,199.315628 L62.751734,199.315628 L62.751734,160.293709 L101.089834,160.293709 Z M136.896919,105.708167 L113.027566,105.708167 L113.027566,139.419131 L136.896919,139.419131 L136.896919,105.708167 Z M194.221154,38.016492 L194.221154,90.685048 L284.248514,90.685048 L194.221154,38.016492 Z M179.391804,37.3909642 L88.2955,90.685048 L179.391804,90.685048 L179.391804,37.3909642 Z" id="Fill-1"></path>
        </g>
    </g>
</svg>