<?xml version="1.0" encoding="UTF-8"?>
<svg width="512px" height="512px" viewBox="0 0 512 512" version="1.1" xmlns="http://www.w3.org/2000/svg" xmlns:xlink="http://www.w3.org/1999/xlink">
    <title>pve</title>
    <g id="pve" stroke="none" stroke-width="1" fill="none" fill-rule="evenodd">
        <g id="proxmoxve" transform="translate(26, 56)" fill-rule="nonzero">
            <path d="M0,73.1609291 L117.504788,199.554633 L0,325.948337 L0,325.948337 C28.1312388,354.079576 73.9893221,353.243939 101.078139,324.107102 L216.869161,199.554633 L101.078139,75.0021642 C73.9893221,45.8653278 28.1312388,45.0296903 0,73.1609291 L0,73.1609291 Z" id="Stroke-1" fill="#E57000"></path>
            <path d="M460,325.948054 L342.495212,199.55435 L460,73.1606459 L460,73.1606459 C431.868761,45.0294071 386.010678,45.8650445 358.921861,75.0018809 L243.130839,199.55435 L358.921861,324.106819 C386.010678,353.243655 431.868761,354.079293 460,325.948054 L460,325.948054 Z" id="Stroke-2" fill="#E57000"></path>
            <path d="M292.294364,19.4186774 L230.001133,87.0599876 L167.70507,19.4186774 C143.273297,-7.11210324 101.151505,-6.3501152 77.6941702,21.0474623 L77.6941702,21.0474623 L230.001133,186.424361 L382.305263,21.0474623 L382.305263,21.0474623 C358.847929,-6.3501152 316.728969,-7.11210324 292.294364,19.4186774 Z" id="Stroke-3" fill="#000000"></path>
            <path d="M167.705636,379.690306 L229.998867,312.048996 L292.29493,379.690306 C316.726703,406.221086 358.848495,405.459098 382.30583,378.061521 L382.30583,378.061521 L229.998867,212.684622 L77.6947368,378.061521 L77.6947368,378.061521 C101.152071,405.459098 143.271031,406.221086 167.705636,379.690306 Z" id="Stroke-4" fill="#000000"></path>
        </g>
    </g>
</svg>