<?xml version="1.0" encoding="UTF-8"?>
<svg width="512px" height="512px" viewBox="0 0 512 512" version="1.1" xmlns="http://www.w3.org/2000/svg" xmlns:xlink="http://www.w3.org/1999/xlink">
    <title>sql</title>
    <g id="sql" stroke="none" stroke-width="1" fill="none" fill-rule="evenodd">
        <g id="mysql" transform="translate(11, 6)" fill-rule="nonzero">
            <path d="M147.262438,73.0634751 C147.262438,73.0634751 150.042941,78.4652507 154.253141,82.2785801 C158.463341,86.0919094 163.070894,99.1198626 163.070894,99.1198626 C163.070894,99.1198626 179.276702,85.5358089 158.860694,72.0306483 C155.524091,70.7596989 147.262438,73.0634751 147.262438,73.0634751" id="Fill-1" fill="#00678F"></path>
            <path d="M252.838504,338.155625 C252.838504,338.155625 213.594934,308.127159 181.183318,223.602769 C181.183318,223.602769 175.940291,230.275975 170.856012,236.313225 C165.772215,242.350475 160.052461,265.070741 159.893232,283.977196 C159.893232,288.743978 154.332708,287.472547 150.996105,283.818448 C147.659502,280.164348 134.631548,258.556283 133.836844,228.210321 C133.765648,203.901609 139.079871,191.667879 142.098978,182.770271 C145.117603,173.873144 149.248429,163.38709 146.388552,157.985314 C143.528675,152.583057 136.85595,148.770209 132.724643,141.30278 C128.593817,133.835351 118.743237,114.29294 114.135685,94.5917806 C109.528132,74.8906213 97.6123803,59.7970144 92.6868499,53.9185125 C87.7618006,48.0400106 77.1165168,33.8993753 75.6868189,28.4975997 C74.25664,23.0958241 75.2100926,14.0394676 85.5373986,14.5161939 C95.8647045,14.9929202 119.219964,27.2266503 125.73394,32.1516996 C132.248398,37.07723 137.650174,42.9557319 141.939748,43.1144803 C146.229804,43.2732287 147.500753,43.749955 152.267054,43.9087034 C157.033355,44.0679329 162.59436,43.3261448 169.479231,44.4383458 C176.364101,45.5505469 203.585606,56.3310074 225.351938,71.6483052 C247.118751,86.9656029 279.848344,115.246392 306.857703,165.452743 C319.091915,191.349901 339.269319,240.126554 347.054726,254.584687 C354.839652,269.042819 358.494233,270.790494 364.054757,272.696919 C369.615762,274.603343 391.223346,281.117319 400.597199,285.566123 C409.971534,290.014927 415.850035,295.257955 422.68199,299.706759 C429.513463,304.155082 444.130825,313.846913 447.14945,315.594589 C450.168075,317.342264 452.153874,320.281515 452.709974,321.473091 C453.266075,322.664666 454.696254,325.365794 450.247449,324.889068 C445.798645,324.412341 421.331185,324.253593 408.938707,327.907693 C396.545747,331.562274 390.508497,334.183547 388.91957,334.898396 C387.330642,335.613726 384.947492,337.122798 386.139067,339.665178 C387.330642,342.207077 388.522217,344.431479 389.793648,347.37073 C391.064597,350.309981 401.338987,366.277666 425.06514,380.153239 C448.791294,394.028813 455.887829,391.274768 485.863378,417.860798 C485.863378,417.860798 483.744808,410.870095 480.355289,407.162598 C476.96577,403.455582 464.467459,390.109651 460.759962,386.296322 C457.052946,382.483474 442.541898,369.87885 431.208223,363.841118 C419.875029,357.803868 410.765757,348.05912 410.236114,346.576506 C409.706472,345.093411 409.335578,343.954752 411.917404,343.676702 C414.499231,343.398652 426.653587,340.062049 430.148938,339.109077 C433.64429,338.155625 437.139641,337.043424 445.3224,336.646072 C453.504678,336.249201 466.771235,331.879771 468.995637,331.482419 C471.219558,331.085548 473.602709,329.575994 470.663458,326.954721 C467.724207,324.332967 464.388085,317.26289 457.714879,311.622511 C451.041673,305.982132 430.361084,288.531832 415.214561,279.105063 C400.067557,269.678293 381.74366,261.734138 376.447717,259.933546 C371.151292,258.132954 367.232612,255.590574 363.630947,248.282374 C360.029763,240.973694 337.99837,195.534125 333.126237,184.094618 C328.253622,172.655111 316.814596,138.124925 285.885595,105.289981 C254.957074,72.4545547 228.053066,55.2952942 221.062363,50.6348256 C214.07166,45.974357 200.514065,37.2888945 182.71933,32.8400905 C164.924594,28.3917675 158.569366,29.4510523 153.697233,29.1330745 C148.824619,28.8150966 145.647245,27.120337 142.681536,24.7905837 C139.715827,22.4598684 131.877504,14.8336907 117.57812,8.69060815 C103.279218,2.54704451 89.403644,-2.32508865 76.9048522,1.1702628 C64.4060604,4.66561426 60.0635696,21.5068968 62.1821394,28.3917675 C64.3002281,35.2766381 68.2193897,45.3388823 78.0699694,56.5662437 C87.920549,67.7940861 96.394347,81.1400172 98.9362458,90.7789323 C101.478145,100.417366 108.363015,119.694715 111.328724,126.685899 C114.294914,133.676602 120.437997,147.445863 125.946086,154.542879 C131.453694,161.639414 132.565895,161.957392 133.360599,162.711687 C134.154822,163.466464 134.710923,164.976017 133.718023,166.723693 C132.724643,168.471369 130.712387,176.785937 129.864766,180.281288 C129.017627,183.77664 121.761863,204.855062 122.238589,222.649316 C122.715315,240.444051 123.827516,260.621937 132.724643,278.734169 C141.622251,296.846882 150.625211,300.818479 153.59092,302.195741 C156.55711,303.572523 173.398392,304.314311 175.834459,289.167307 C178.270525,274.020784 178.588503,266.500439 179.541475,262.68759 C180.494928,258.874261 181.978023,255.696407 183.566469,259.615568 C185.155396,263.53473 191.722289,277.410303 193.840859,280.799822 C195.959428,284.189342 204.221081,298.064915 215.76642,307.28002 C227.311759,316.495125 236.103054,324.756777 241.187333,329.841056 C246.271612,334.924854 249.448985,337.255088 252.838504,338.155625" id="Fill-2" fill="#00678F"></path>
            <path d="M490.276356,465.087455 L443.256057,465.087455 C436.555396,465.087455 431.123392,461.800609 431.123392,457.746113 L431.123392,395.854657 L414.022518,395.854657 L414.022518,458.910654 C414.022518,468.036737 426.249263,475.435005 441.331479,475.435005 L490.276356,475.435005 L490.276356,465.087455 Z" id="L" fill="#E58E19"></path>
            <path d="M349.371035,465.107824 C341.374649,465.107824 334.892539,461.180159 334.892539,456.335257 L334.892539,414.977819 C334.892539,410.132917 341.374649,406.205252 349.371035,406.205252 L372.825354,406.205252 C380.821739,406.205252 387.30407,410.132917 387.30407,414.977819 L387.30407,456.335257 C387.30407,459.007621 385.329349,461.399267 382.218702,463.008233 L369.998413,451.800812 L349.524223,451.800812 L364.033753,465.107824 L349.371035,465.107824 Z M409.160696,487.717503 L393.118182,473.004495 C399.903368,470.312794 404.386767,465.667128 404.386767,460.386278 L404.386767,410.926798 C404.386767,402.602714 393.249801,395.854657 379.511275,395.854657 L342.685114,395.854657 C328.946808,395.854657 317.809621,402.602714 317.809621,410.926798 L317.809621,460.386278 C317.809621,468.710362 328.946808,475.458419 342.685114,475.458419 L375.319506,475.458419 L388.686506,487.717503 L409.160696,487.717503 Z" id="Q" fill="#E58E19"></path>
            <path d="M280.040178,430.471114 L257.048115,430.471114 C251.156445,430.471114 246.38051,427.582354 246.38051,424.018733 L246.38051,412.654473 C246.38051,409.090985 251.156445,406.202225 257.048115,406.202225 L305.783009,406.202225 L305.783009,395.854657 L255.016117,395.854657 C240.798742,395.854657 229.273286,402.825917 229.273286,411.425403 L229.273286,425.247802 C229.273286,433.847289 240.798742,440.818682 255.016117,440.818682 L278.00818,440.818682 C283.89963,440.818682 288.675784,443.707441 288.675784,447.27093 L288.675784,458.635189 C288.675784,462.198811 283.89963,465.087571 278.00818,465.087571 L229.273286,465.087571 L229.273286,475.435005 L280.040178,475.435005 C294.257553,475.435005 305.783009,468.463746 305.783009,459.864259 L305.783009,446.04186 C305.783009,437.442374 294.257553,430.471114 280.040178,430.471114" id="S" fill="#E58E19"></path>
            <path d="M216.223132,420.419652 L199.12496,420.419652 L199.12496,463.740107 C199.12496,464.550783 198.033399,465.207891 196.686738,465.207891 L163.645178,465.207891 C156.903279,465.207891 151.437988,461.917843 151.437988,457.859289 L151.437988,420.444849 L134.339816,420.444849 L134.339816,459.508358 C134.339816,468.340658 146.233746,475.500682 160.905813,475.500682 L196.686738,475.500682 C198.033399,475.500682 199.12496,476.157922 199.12496,476.968598 L199.12496,482.358608 C199.12496,486.417161 193.659669,489.70721 186.91777,489.70721 L134.339816,489.70721 L134.339816,500 L189.657355,500 C204.329201,500 216.223132,492.839977 216.223132,484.007677 L216.223132,420.419652 Z" id="y" fill="#00678F"></path>
            <path d="M86.4331738,402.519683 L60.02516,462.873406 C59.9500671,463.044854 59.5481773,463.044854 59.4733047,462.873406 L33.0652909,402.519683 C31.3460834,398.590767 25.4736476,395.854657 18.7599958,395.854657 L14.7985735,395.854657 C6.62556631,395.854657 0,399.865831 0,404.813839 L0,475.435005 L17.0916576,475.435005 L17.0916576,407.750194 C17.0916576,407.547815 17.5675392,407.510219 17.6532023,407.705932 L44.0975514,468.14258 C45.9783956,472.441323 52.4035676,475.435005 59.7492323,475.435005 L59.7492323,475.435005 C67.0946769,475.435005 73.520069,472.441323 75.4009133,468.14258 L101.845262,407.705932 C101.930705,407.510219 102.406587,407.547815 102.406587,407.750194 L102.406587,475.435005 L119.498465,475.435005 L119.498465,404.813839 C119.498465,399.865831 112.872898,395.854657 104.699671,395.854657 L100.738469,395.854657 C94.0248171,395.854657 88.1523813,398.590767 86.4331738,402.519683" id="M" fill="#00678F"></path>
        </g>
    </g>
</svg>