<?xml version="1.0" encoding="UTF-8"?>
<svg width="512px" height="512px" viewBox="0 0 512 512" version="1.1" xmlns="http://www.w3.org/2000/svg" xmlns:xlink="http://www.w3.org/1999/xlink">
    <title>swm</title>
    <g id="swm" stroke="none" stroke-width="1" fill="none" fill-rule="evenodd">
        <path d="M255.840709,281.409788 C298.747046,281.409788 340.812083,278.889809 375.249326,273.765852 C402.5916,269.649886 411.144824,249.518054 401.862473,220.790293 L350.543128,59.315639 C341.232733,29.7478854 317.451966,16 284.585151,16 L226.899964,16 C194.033149,16 170.224338,29.7478854 160.913943,59.315639 L109.594598,220.790293 C100.34029,249.518054 108.865471,269.649886 136.207745,273.765852 C170.673032,278.861809 212.738068,281.409788 255.812666,281.409788 L255.840709,281.409788 Z M237.949047,267.801902 L237.949047,482.448113 L273.620198,482.448113 L273.620198,267.773902 L237.949047,267.773902 L237.949047,267.801902 Z M168.093043,496 L343.420115,496 C351.777036,496 357.497881,490.00805 357.497881,481.300122 C357.497881,465.144257 344.317503,453.94435 324.462805,453.94435 L187.022309,453.94435 C167.167612,453.94435 154.211581,465.144257 154.211581,481.300122 C154.211581,490.00805 159.708079,496 168.093043,496 L168.093043,496 Z" id="swmusic" fill="#000000" fill-rule="nonzero"></path>
    </g>
</svg>