<?xml version="1.0" encoding="UTF-8"?>
<svg width="512px" height="512px" viewBox="0 0 512 512" version="1.1" xmlns="http://www.w3.org/2000/svg" xmlns:xlink="http://www.w3.org/1999/xlink">
    <title>trilium</title>
    <g id="trilium" stroke="none" stroke-width="1" fill="none" fill-rule="evenodd">
        <g transform="translate(16, 55)" fill-rule="nonzero">
            <path d="M388.200538,4.90853166 C360.070997,4.03791192 345.495794,17.2071047 341.975958,18.4285266 C345.178094,12.3618709 347.320954,8.53969504 355.510049,0.0100467487 C327.655966,-0.2820324 301.828947,5.74792861 282.123601,24.1884211 C255.694358,48.9196113 257.748996,69.4098903 257.695751,69.3088705 C257.700956,69.3192833 253.52587,55.9468482 252.273595,41.6444455 C223.512459,81.4696717 212.155991,134.238169 233.961886,173.602369 C247.49782,140.938413 268.991579,112.787252 296.69144,90.5888826 C297.604019,67.2957996 306.971893,47.6155482 321.778475,33.0853811 C308.416948,49.0830923 302.521182,67.308675 303.116037,85.6775378 C335.33466,61.6332804 374.824256,45.6080117 418.20104,40.3495613 C386.795924,46.1223157 358.341345,58.643124 333.470933,75.7208148 C349.037594,82.8324995 366.815089,83.9473984 385.499518,77.4380944 C367.58623,85.8355001 347.700903,87.209381 327.584276,79.8956202 C309.729749,92.9747787 293.850874,108.428785 280.202934,125.412797 C304.432481,133.336316 330.935268,131.697966 357.309393,118.251496 C333.098166,133.894703 304.654673,139.76112 274.26121,133.099373 C262.144588,149.365214 251.988919,166.835972 244.051319,184.841168 C253.828731,192.052035 296.259885,214.676559 369.042266,160.987881 C358.76543,157.950024 350.436743,153.653962 350.433047,153.646594 C350.66466,153.749681 357.933707,154.418048 379.192366,141.678664 C397.987032,130.684123 414.154116,110.768803 426.088987,95.2670221 C415.937014,91.5256548 408.030642,87.598773 408.026999,87.589615 C408.021742,87.5844086 421.146165,88.4730425 441.505178,72.8830966 C459.664496,58.9774218 479.937215,38.8196341 480,39.3890062 C480.128282,39.5103154 435.278909,6.3632368 388.200538,4.9085681" id="Stroke-1" fill="#4FA52B"></path>
            <path d="M64.2625658,75.991212 C85.7750183,69.7438888 99.4730004,76.9564902 102.41688,77.1936441 C98.8110247,73.1743938 96.44242,70.6675628 88.5328045,65.7495799 C109.939517,59.9994729 130.969794,59.5001608 149.612321,69.7376534 C174.616445,83.4680572 176.875114,99.5950463 176.898402,99.5076986 C176.894153,99.5181573 177.604751,88.4297297 175.887474,77.2082003 C205.518924,102.056113 224.16785,140.284886 214.74819,174.810716 C198.193028,152.436351 176.350611,135.104834 150.843226,123.569178 C145.77175,105.881951 134.861137,92.6404218 120.727471,84.4312395 C134.023662,94.0529494 141.983997,106.865914 144.972302,121.074818 C115.636987,109.021206 82.2050912,104.560869 47.7961502,109.133527 C73.0773482,107.331943 126.627955,110.991323 170.080094,147.012831 C152.89888,157.899432 132.171064,161.90202 109.328366,156.81762 C130.916892,164.013612 153.933075,162.873586 176.101104,151.731125 C188.48788,161.806341 199.590987,173.194234 209.084629,185.433073 C202.902859,192.905726 174.453608,218.679367 108.302647,191.930052 C115.651831,187.561249 121.262548,182.612011 121.264646,182.605775 C121.106267,182.730535 115.630693,184.68619 96.8590854,179.13157 C80.3165644,174.4258 64.1251459,162.353429 52.0195823,152.827425 C59.1403447,147.944784 64.497302,143.363826 64.497302,143.355547 C64.4993266,143.351303 54.55532,146.636298 35.9444725,138.71627 C19.3427665,131.649304 -0.0590636075,120.207283 0,120.65666 C-0.0759263903,120.775069 28.2632782,86.4471315 64.2626183,75.9911911" id="Stroke-2" fill="#E47B19"></path>
            <path d="M217.062356,371.654761 C201.347285,357.09563 200.674628,342.271071 199.435976,339.738043 C197.842422,344.693408 196.907627,347.880696 196.666428,356.815586 C181.41526,342.097083 170.731299,325.081874 170.169981,304.693462 C169.418456,277.354158 181.770137,267.491711 181.686646,267.517161 C181.697133,267.517161 172.09989,272.438026 163.575419,279.418945 C169.83825,242.75775 192.627995,208.469939 226.034441,199.059883 C215.450254,223.758973 211.653093,250.293203 214.482987,276.959676 C202.203186,289.905468 196.483158,305.433461 196.534124,321.112267 C198.069697,305.4219 204.872981,292.52481 215.269269,283.017297 C219.534983,313.082868 232.1395,342.742188 252.753456,368.717574 C238.907975,348.857613 215.814325,303.083261 224.651895,249.527572 C242.122904,258.230062 255.583297,273.256911 262.495608,294.533938 C257.958583,273.23834 245.769261,254.91006 225.649269,242.24267 C228.006012,227.074267 232.088455,212.30725 237.662361,198.435754 C246.9151,199.802288 282.311691,210.358437 292.290503,277.941093 C285.058068,274.078201 278.189846,271.929925 278.182884,271.932174 C278.366228,271.999656 282.671196,275.523569 287.201386,293.689474 C291.351084,309.607469 289.186938,328.891826 287.147792,343.558614 C279.595243,340.136578 273.1585,338.014221 273.153845,338.018846 C273.148596,338.018846 280.743442,344.552062 283.223031,363.761289 C285.433572,380.897735 285.359402,402.504011 285.704958,402.232096 C285.84157,402.234637 243.363605,396.015082 217.06204,371.654709" id="Stroke-3" fill="#E33F3B"></path>
        </g>
    </g>
</svg>