<?xml version="1.0" encoding="UTF-8"?>
<svg width="512px" height="512px" viewBox="0 0 512 512" version="1.1" xmlns="http://www.w3.org/2000/svg" xmlns:xlink="http://www.w3.org/1999/xlink">
    <title>vp</title>
    <defs>
        <linearGradient x1="-0.834464337%" y1="7.69163407%" x2="57.6345188%" y2="78.3752474%" id="linearGradient-1">
            <stop stop-color="#41D1FF" offset="0%"></stop>
            <stop stop-color="#BD34FE" offset="100%"></stop>
        </linearGradient>
        <linearGradient x1="43.3569961%" y1="2.24299039%" x2="50.3140853%" y2="89.0245828%" id="linearGradient-2">
            <stop stop-color="#FFEA83" offset="0%"></stop>
            <stop stop-color="#FFDD35" offset="8.3%"></stop>
            <stop stop-color="#FFA800" offset="100%"></stop>
        </linearGradient>
    </defs>
    <g id="vp" stroke="none" stroke-width="1" fill="none" fill-rule="evenodd">
        <g id="vitepress" transform="translate(26, 26)" fill-rule="nonzero">
            <path d="M458.514322,67.783964 L242.397035,453.986357 C240.330846,457.684534 236.430689,459.982881 232.192403,460.000094 C227.954117,460.016929 224.035599,457.749987 221.93973,454.068528 L1.54680031,67.8168323 C-0.715350944,63.8602269 -0.480713897,58.9525617 2.14860392,55.2295166 C4.77792173,51.5064715 9.32637598,49.6414048 13.8146055,50.4459417 L230.162119,89.0990493 C231.537905,89.3465563 232.946863,89.3465563 234.322649,89.0990493 L446.147848,50.5116783 C450.618106,49.6953727 455.158338,51.5301675 457.804301,55.2222743 C460.450263,58.9143811 460.726819,63.8008052 458.514322,67.7675299 L458.514322,67.783964 Z" id="Stroke-1" fill="url(#linearGradient-1)"></path>
            <path d="M332.994605,0.127645897 L173.313871,31.3686022 C170.684357,31.8813725 168.737502,34.1091751 168.584537,36.7804214 L158.764599,202.480486 C158.654677,204.323624 159.421832,206.110543 160.834455,207.301766 C162.247078,208.492989 164.139617,208.94891 165.940707,208.531883 L210.39317,198.282226 C212.339256,197.833168 214.380376,198.40452 215.809239,199.798297 C217.238102,201.192074 217.858077,203.216472 217.454329,205.169996 L204.251603,269.767438 C203.837123,271.790567 204.520539,273.88213 206.050123,275.271729 C207.579707,276.661327 209.729203,277.143411 211.706874,276.540411 L239.16329,268.20949 C241.144267,267.604088 243.298108,268.087778 244.828872,269.481815 C246.359636,270.875853 247.040008,272.973227 246.61856,274.998863 L225.615716,376.462273 C224.302012,382.808861 232.758982,386.269145 236.289562,380.840927 L238.637808,377.200248 L368.77662,117.842913 C369.77315,115.849409 369.550233,113.46381 368.201569,111.688865 C366.852904,109.91392 364.612307,109.057347 362.421577,109.479193 L316.65541,118.285698 C314.652158,118.668582 312.59362,117.984142 311.219963,116.478476 C309.846306,114.972809 309.354992,112.862354 309.922677,110.905945 L339.776602,7.49099989 C340.348759,5.52801574 339.854121,3.40914541 338.471703,1.90123212 C337.089285,0.39331884 335.019348,-0.285197283 333.011026,0.111246444 L332.994605,0.127645897 Z" id="Stroke-2" fill="url(#linearGradient-2)"></path>
        </g>
    </g>
</svg>