<?xml version="1.0" encoding="UTF-8"?>
<svg width="512px" height="512px" viewBox="0 0 512 512" version="1.1" xmlns="http://www.w3.org/2000/svg" xmlns:xlink="http://www.w3.org/1999/xlink">
    <title>wrt</title>
    <defs>
        <linearGradient x1="4.09729624%" y1="4.09729624%" x2="95.9027038%" y2="95.9027038%" id="linearGradient-1">
            <stop stop-color="#5E72E4" offset="0%"></stop>
            <stop stop-color="#778AFF" offset="100%"></stop>
        </linearGradient>
    </defs>
    <g id="wrt" stroke="none" stroke-width="1" fill="none" fill-rule="evenodd">
        <g id="argon" transform="translate(26, 26)">
            <path d="M64.3495298,0 L395.65047,0 C431.159875,0 460,28.8401254 460,64.3495298 L460,395.65047 C460,431.159875 431.159875,460 395.65047,460 L64.3495298,460 C28.8401254,460 0,431.159875 0,395.65047 L0,64.3495298 C0,28.8401254 28.8401254,0 64.3495298,0 Z" id="path-2" fill="url(#linearGradient-1)"></path>
            <path d="M230,81.4733542 C145.822884,81.4733542 77.8683386,149.60815 77.8683386,233.605016 C77.8683386,291.645768 110.49373,342.115987 158.260188,367.711599 C170.517241,374.380878 185.838558,367.351097 189.263323,353.832288 L197.014107,322.10815 C199.717868,310.932602 195.211599,299.396552 186.018809,292.547022 C167.99373,279.208464 156.45768,257.758621 156.45768,233.605016 C156.45768,193.048589 189.443574,160.242947 229.819749,160.242947 C270.376176,160.242947 303.181818,193.22884 303.181818,233.605016 C303.181818,257.758621 291.645768,279.028213 273.62069,292.547022 C264.4279,299.396552 259.92163,310.932602 262.625392,322.288401 L270.556426,354.012539 C273.981191,367.531348 289.122257,374.561129 301.559561,367.89185 C349.50627,342.296238 381.952831,291.826019 381.952831,233.605016 C382.311912,149.788401 313.996865,81.4733542 230,81.4733542 L230,81.4733542 Z" id="path-1" fill="#FFFFFF" fill-rule="nonzero"></path>
            <circle id="round-1" fill="#FFFFFF" fill-rule="nonzero" cx="230" cy="236.84953" r="32.9858934"></circle>
        </g>
    </g>
</svg>