<?xml version="1.0" encoding="UTF-8"?>
<svg width="512px" height="512px" viewBox="0 0 512 512" version="1.1" xmlns="http://www.w3.org/2000/svg" xmlns:xlink="http://www.w3.org/1999/xlink">
    <title>logo</title>
    <defs>
        <linearGradient x1="13.4696861%" y1="3.51449623%" x2="75.2759226%" y2="100%" id="linearGradient-1">
            <stop stop-color="#47CAFF" offset="0%"></stop>
            <stop stop-color="#BD34FE" offset="100%"></stop>
        </linearGradient>
        <linearGradient x1="30.9769787%" y1="32.9719636%" x2="91.581333%" y2="126.38407%" id="linearGradient-2">
            <stop stop-color="#47CAFF" offset="0%"></stop>
            <stop stop-color="#BD34FE" offset="100%"></stop>
        </linearGradient>
    </defs>
    <g id="logo" stroke="none" stroke-width="1" fill="none" fill-rule="evenodd">
        <g transform="translate(16.000000, -22.000000)" id="triangle">
            <path d="M358.178929,87.6909372 L466.52211,420.718968 C471.647882,436.474698 463.030599,453.402502 447.274868,458.528274 C444.277707,459.503333 441.145615,460 437.993835,460 L221.307475,460 C204.738932,460 191.307475,446.568542 191.307475,430 C191.307475,426.848221 191.804142,423.716128 192.779201,420.718968 L301.122381,87.6909372 C306.248153,71.9352063 323.175957,63.3179226 338.931687,68.4436953 C348.056312,71.4121869 355.210438,78.5663123 358.178929,87.6909372 Z" fill="url(#linearGradient-1)"></path>
            <path d="M178.178929,122.690937 L286.52211,455.718968 C291.647882,471.474698 283.030599,488.402502 267.274868,493.528274 C264.277707,494.503333 261.145615,495 257.993835,495 L41.3074749,495 C24.7389324,495 11.3074749,481.568542 11.3074749,465 C11.3074749,461.848221 11.8041416,458.716128 12.7792005,455.718968 L121.122381,122.690937 C126.248153,106.935206 143.175957,98.3179226 158.931687,103.443695 C168.056312,106.412187 175.210438,113.566312 178.178929,122.690937 Z" fill="url(#linearGradient-2)"></path>
        </g>
    </g>
</svg>