<?xml version="1.0" encoding="UTF-8"?>
<svg width="512px" height="512px" viewBox="0 0 512 512" version="1.1" xmlns="http://www.w3.org/2000/svg" xmlns:xlink="http://www.w3.org/1999/xlink">
    <title>jellyfin</title>
    <defs>
        <linearGradient x1="18.6817014%" y1="40.3691835%" x2="100%" y2="87.6668463%" id="linearGradient-1">
            <stop stop-color="#A45FC4" offset="0%"></stop>
            <stop stop-color="#03A3DB" offset="100%"></stop>
        </linearGradient>
        <path d="M256.048101,27 L257.940027,27.101957 C321.489158,33.8107579 494.501221,369.581253 485.674352,435.671762 L485.278369,437.654519 C467.998798,502.425984 36.5304463,501.902684 26.4218508,435.671762 C16.2123605,368.770628 194.12079,27 256.048101,27 Z M256.03113,119.388493 L254.799656,119.454817 C213.426836,123.818994 100.016747,342.243337 106.594595,385.344381 C109.914922,407.102888 183.102736,417.963351 256.229937,417.963351 L258.42581,417.960086 C330.884376,417.744548 402.594582,406.8601 405.467665,385.344381 L405.605692,383.987734 C408.978164,337.472122 295.929059,119.388493 256.03113,119.388493 Z M256.015977,203.137589 C276.491933,203.137589 334.891623,316.192359 331.942242,338.266048 C328.994073,360.339737 183.464589,360.387014 180.089712,338.266048 C176.713622,316.146294 235.540021,203.137589 256.015977,203.137589 Z" id="path-2"></path>
    </defs>
    <g id="jellyfin" stroke="none" stroke-width="1" fill="none" fill-rule="evenodd">
        <mask id="mask-3" fill="white">
            <use xlink:href="#path-2"></use>
        </mask>
        <use fill="url(#linearGradient-1)" xlink:href="#path-2"></use>
    </g>
</svg>