<?xml version="1.0" encoding="UTF-8"?>
<svg width="512px" height="512px" viewBox="0 0 512 512" version="1.1" xmlns="http://www.w3.org/2000/svg" xmlns:xlink="http://www.w3.org/1999/xlink">
    <title>navidrome</title>
    <g id="navidrome" stroke="none" stroke-width="1" fill="none" fill-rule="evenodd">
        <g transform="translate(26, 26)" stroke="#000000" stroke-width="20">
            <circle id="round-1" fill="#0084FF" cx="230" cy="230" r="220"></circle>
            <circle id="round-2" fill="#FFFFFF" cx="230" cy="230" r="80"></circle>
            <circle id="round-3" fill="#FFFFFF" cx="230" cy="230" r="20"></circle>
            <path d="M230.390655,56 C149.784117,56 81.9793543,110.810919 62.2136,185.195523" id="Stroke-1" stroke-linecap="round"></path>
            <path d="M398.390655,275 C317.784117,275 249.979354,329.810919 230.2136,404.195523" id="Stroke-2" stroke-linecap="round" transform="translate(314.3021, 339.5978) scale(-1, -1) translate(-314.3021, -339.5978)"></path>
            <path d="M56.6093446,221.19958 C56.4641283,224.11474 56.3906554,227.04879 56.3906554,230" id="Stroke-3" stroke-linecap="round"></path>
            <path d="M404.609345,230.19958 C404.464128,233.11474 404.390655,236.04879 404.390655,239" id="Stroke-4" stroke-linecap="round" transform="translate(404.5, 234.5998) scale(-1, -1) translate(-404.5, -234.5998)"></path>
            <path d="M230,99 C157.650698,99 99,157.650698 99,230" id="Stroke-5" stroke-linecap="round"></path>
            <path d="M361,230 C288.650698,230 230,288.650698 230,361" id="Stroke-6" stroke-linecap="round" transform="translate(295.5, 295.5) scale(-1, -1) translate(-295.5, -295.5)"></path>
        </g>
    </g>
</svg>