<?xml version="1.0" encoding="UTF-8"?>
<svg width="512px" height="512px" viewBox="0 0 512 512" version="1.1" xmlns="http://www.w3.org/2000/svg" xmlns:xlink="http://www.w3.org/1999/xlink">
    <title>onedev</title>
    <g id="onedev" stroke="none" stroke-width="1" fill="none" fill-rule="evenodd">
        <g transform="translate(26, 50)" fill="#000000" fill-rule="nonzero">
            <path d="M410.209497,235.841228 C382.712291,235.841228 360.418995,213.550503 360.418995,186.050726 C360.418995,170.027821 368.020558,155.808939 379.777542,146.701453 C356.122235,87.952514 298.617095,46.3700558 231.500781,46.3700558 C198.059553,46.3700558 166.995419,56.7033519 141.299665,74.3195531 C147.850168,85.5343016 151.620112,98.5684916 151.620112,112.489274 C151.620112,154.356983 117.677765,188.29933 75.8100558,188.29933 C74.7435754,188.29933 73.6848045,188.260782 72.6286034,188.219665 C71.9578772,194.153408 71.5801117,200.177095 71.5801117,206.288156 C71.5801117,232.970727 78.184581,258.124246 89.7848045,280.258212 C116.935084,337.215977 176.501229,376.781117 245.665698,376.781117 C309.261341,376.781117 364.674637,343.31419 394.299666,293.654749 C390.434637,289.663799 388.044693,284.236314 388.044693,278.243463 C388.044693,266.000781 397.966815,256.078659 410.209497,256.078659 C422.452178,256.078659 432.374302,266.000781 432.374302,278.243463 C432.374302,288.748939 425.05542,297.527485 415.246368,299.812068 C412.650838,304.877208 409.877989,309.839553 406.891844,314.65542 C414.863463,323.647262 419.787262,335.383686 419.787262,348.335643 C419.787262,376.483016 396.962011,399.300558 368.817208,399.300558 C355.256201,399.300558 343.034079,393.91933 333.916314,385.271844 C303.720781,402.631061 268.760781,412.576314 231.500781,412.576314 C195.088826,412.576314 160.868939,403.055084 131.146257,386.428269 C122.159553,394.417878 110.376872,399.300558 97.4094973,399.300558 C69.2544133,399.300558 46.4394413,376.483016 46.4394413,348.335643 C46.4394413,336.40391 50.5460334,325.438436 57.4203352,316.765251 C37.0672625,284.801675 25.2126257,246.917208 25.2126257,206.288156 C25.2126257,194.42067 26.2739666,182.799888 28.2090503,171.474637 C11.009162,157.576983 0,136.3219 0,112.489274 C0,70.6215643 33.9423463,36.6792178 75.8100558,36.6792178 C86.4748603,36.6792178 96.6179889,38.8892738 105.825698,42.8648045 C140.649497,16.0203352 184.228715,0 231.500781,0 C321.678772,0 398.424246,58.2041341 426.378883,138.997095 C445.927598,145.717207 460,164.22257 460,186.050726 C460,213.550503 437.706704,235.841228 410.209497,235.841228" id="Stroke-1" transform="translate(230, 206.2882) scale(-1, 1) rotate(-180) translate(-230, -206.2882)"></path>
            <path d="M233.854749,268.388381 C257.016648,268.388381 275.802123,278.179443 275.802123,290.239666 C275.802123,302.310169 257.016648,302.22283 233.854749,302.22283 C210.68771,302.22283 191.907375,302.310169 191.907375,290.239666 C191.907375,278.179443 210.68771,268.388381 233.854749,268.388381" id="Stroke-2" transform="translate(233.8547, 285.3056) scale(-1, 1) rotate(-180) translate(-233.8547, -285.3056)"></path>
            <path d="M172.994434,205.645074 C182.145607,210.394124 193.429742,206.819488 198.178792,197.665744 C198.505161,197.033566 198.705607,196.373119 198.960021,195.715242 C202.472982,219.188091 195.408512,239.58742 180.745049,244.233677 C163.293317,249.763957 141.770971,230.919376 132.655775,202.160381 C123.543149,173.391108 130.304378,145.59323 147.748401,140.070661 C163.519462,135.074906 182.600468,150.036471 192.854099,174.216024 C192.024043,173.581275 191.15544,172.977365 190.202032,172.483957 C181.043149,167.729767 169.769295,171.294124 165.015105,180.455577 C160.266054,189.61189 163.835551,200.890884 172.994434,205.645074" id="Stroke-3" transform="translate(164.2246, 192.1538) scale(-1, 1) rotate(-180) translate(-164.2246, -192.1538)"></path>
            <path d="M319.959298,140.071407 C337.40589,145.591407 344.167119,173.391854 335.051923,202.158558 C325.936728,230.920122 304.414381,249.764703 286.96265,244.231854 C272.301756,239.588167 265.234717,219.186268 268.747678,195.713418 C269.004661,196.371296 269.205108,197.034312 269.531476,197.663921 C274.280527,206.820234 285.562091,210.392301 294.713264,205.645821 C303.872147,200.891631 307.441644,189.610067 302.692594,180.456323 C297.940974,171.292301 286.667119,167.730514 277.505666,172.482134 C276.552259,172.978111 275.683655,173.582022 274.856169,174.214201 C285.104661,150.037217 304.188236,135.075653 319.959298,140.071407" id="Stroke-4" transform="translate(303.484, 192.1536) scale(-1, 1) rotate(-180) translate(-303.484, -192.1536)"></path>
        </g>
    </g>
</svg>