<?xml version="1.0" encoding="UTF-8"?>
<svg width="512px" height="512px" viewBox="0 0 512 512" version="1.1" xmlns="http://www.w3.org/2000/svg" xmlns:xlink="http://www.w3.org/1999/xlink">
    <title>portainer</title>
    <g id="portainer" stroke="none" stroke-width="1" fill="none" fill-rule="evenodd">
        <path d="M200.930039,327.820661 C216.301299,327.820661 230.046026,334.781467 239.449445,345.774033 C247.586935,340.094433 257.351761,336.796744 268.021513,336.796744 C295.871168,336.796744 318.476601,359.69685 318.476601,387.911129 C318.476601,393.773241 317.572078,399.269523 315.764238,404.582088 C321.91218,413.009024 325.709568,423.635761 325.709568,434.994156 C325.709568,463.207228 303.105341,486.107334 275.255283,486.107334 C262.958195,486.107334 251.746534,481.710951 243.066331,474.381904 C233.843012,487.389747 218.833561,496 201.834562,496 C182.3033,496 165.304301,484.641605 156.805404,468.153963 C153.369424,468.885621 149.933041,469.252657 146.315754,469.252657 C118.466902,469.252657 95.681369,446.35255 95.681369,418.139478 C95.681369,389.926406 118.285998,367.025897 146.315754,367.025897 C148.124799,366.842581 149.933041,366.842581 151.742087,367.20841 C156.985505,344.675339 177.05948,327.820661 200.930039,327.820661 Z M232.216318,264.609872 C238.727274,275.784548 241.982753,288.608672 241.982753,301.616514 C241.982753,312.974909 240.535114,323.601645 236.014912,333.127276 C226.430186,323.783756 212.324856,319.753604 198.038219,319.753604 C172.720424,319.753604 151.019916,335.692904 145.413482,359.508388 C143.424336,359.325875 142.158004,359.142559 140.168858,359.142559 C135.286846,359.325875 130.584936,360.05874 125.882623,361.341152 C107.798598,347.784164 95.8633188,326.166068 95.8633188,301.616514 C95.8633188,288.608672 99.2992996,275.784548 105.628547,264.609872 L232.216318,264.609872 Z M281.221154,16 L281.221154,36.67096 L400.897968,106.685048 L425.894558,106.685048 L425.894558,121.707765 L306.535734,121.707765 L306.535734,344.661791 C302.557039,340.081689 297.493721,336.784402 291.707187,333.852542 L291.707187,121.707765 L281.221154,121.707765 L281.221154,331.841687 C277.766238,330.167983 270.19587,330.010191 267.418006,330.004784 L267.102418,330.00479 C266.811994,330.005373 266.598879,330.007406 266.479428,330.008387 L266.391804,330.008923 L266.391804,121.707765 L231.129483,121.707765 L231.129483,155.419131 L231.131896,194.44105 L192.793393,194.44105 L192.793393,121.707765 L87,121.707765 L87,106.685048 L145.647251,106.685048 L266.22095,36.1455327 L266.391804,36.4450303 L266.391804,16 L281.221154,16 Z M144.865301,219.722463 L144.865301,258.744383 L106.527603,258.744383 L106.527603,219.722463 L144.865301,219.722463 Z M188.089834,219.722463 L188.089834,258.744383 L149.751734,258.744383 L149.751734,219.722463 L188.089834,219.722463 Z M231.131453,219.722463 L231.131453,258.744383 L192.793353,258.744383 L192.793353,219.722463 L231.131453,219.722463 Z M144.865301,176.293709 L144.865301,215.315628 L106.527603,215.315628 L106.527603,176.293709 L144.865301,176.293709 Z M188.089834,176.293709 L188.089834,215.315628 L149.751734,215.315628 L149.751734,176.293709 L188.089834,176.293709 Z M223.896919,121.708167 L200.027566,121.708167 L200.027566,155.419131 L223.896919,155.419131 L223.896919,121.708167 Z M281.221154,54.016492 L281.221154,106.685048 L371.248514,106.685048 L281.221154,54.016492 Z M266.391804,53.3909642 L175.2955,106.685048 L266.391804,106.685048 L266.391804,53.3909642 Z" fill="#13BEF9"></path>
    </g>
</svg>