<?xml version="1.0" encoding="UTF-8"?>
<svg width="512px" height="512px" viewBox="0 0 512 512" version="1.1" xmlns="http://www.w3.org/2000/svg" xmlns:xlink="http://www.w3.org/1999/xlink">
    <title>bili</title>
    <g id="bili" stroke="none" stroke-width="1" fill="none" fill-rule="evenodd">
        <g id="bilibili" transform="translate(16, 42)" fill="#6D6D6D" fill-rule="nonzero">
            <path d="M99.5338669,45.1193913 C88.8610667,34.8022923 88.8610667,17.6709913 99.5338669,7.3541596 C109.6776,-2.45138653 125.7472,-2.45138653 135.890933,7.3541596 L192.459467,62.0363872 C194.0664,63.5902317 195.431734,65.298258 196.554934,67.1145056 L282.104,67.1145056 C283.229333,65.298258 284.594666,63.5902317 286.2,62.0363872 L342.768,7.3541596 C352.912,-2.45138653 368.981333,-2.45138653 379.125334,7.3541596 C389.8,17.6709913 389.8,34.8022923 379.125334,45.1193913 L356.373334,67.1145056 L373.333333,67.1145056 C432.242666,67.1145056 480,114.968637 480,173.999757 L480,321.114748 C480,380.1448 432.242666,428 373.333333,428 L106.666667,428 C47.7562667,428 0,380.1448 0,321.114748 L0,173.99949 C0,114.968369 47.7562667,67.1145056 106.666667,67.1145056 L122.287733,67.1145056 L99.5338669,45.1193913 Z M106.666667,118.669538 C77.2114667,118.669538 53.3333333,142.596603 53.3333333,172.112164 L53.3333333,323.001273 C53.3333333,352.517635 77.2114667,376.443899 106.666667,376.443899 L373.333333,376.443899 C402.789334,376.443899 426.666667,352.517635 426.666667,323.001273 L426.666667,172.112164 C426.666667,142.596603 402.789334,118.669538 373.333333,118.669538 L106.666667,118.669538 Z M133.333333,222.723399 C133.333333,207.965753 145.272533,196.002087 160,196.002087 C174.727466,196.002087 186.666667,207.965753 186.666667,222.723399 L186.666667,246.613055 C186.666667,261.371236 174.727466,273.334368 160,273.334368 C145.272533,273.334368 133.333333,261.371236 133.333333,246.613055 L133.333333,222.723399 Z M320,196.002087 C305.272,196.002087 293.333333,207.965753 293.333333,222.723399 L293.333333,246.613055 C293.333333,261.371236 305.272,273.334368 320,273.334368 C334.728,273.334368 346.666667,261.371236 346.666667,246.613055 L346.666667,222.723399 C346.666667,207.965753 334.728,196.002087 320,196.002087 Z" id="Fill-1"></path>
        </g>
    </g>
</svg>