<?xml version="1.0" encoding="UTF-8"?>
<svg width="512px" height="512px" viewBox="0 0 512 512" version="1.1" xmlns="http://www.w3.org/2000/svg" xmlns:xlink="http://www.w3.org/1999/xlink">
    <title>gitee</title>
    <g id="gitee" stroke="none" stroke-width="1" fill="none" fill-rule="evenodd">
        <g transform="translate(16, 16)" fill="#6D6D6D" fill-rule="nonzero" id="Stroke-1">
            <path d="M240,0 C372.54834,0 480,107.45166 480,240 C480,372.54834 372.54834,480 240,480 C107.45166,480 0,372.54834 0,240 C0,107.45166 107.45166,0 240,0 Z M361.488898,106.666669 C361.486448,106.666669 361.483998,106.666669 361.481547,106.674015 L195.555066,106.674015 C146.463358,106.674015 106.666667,146.470707 106.666667,195.562414 L106.666667,361.481547 C106.666667,368.027108 111.972893,373.333333 118.518453,373.333333 L293.335525,373.333333 C337.517095,373.333333 373.333333,337.517095 373.333333,293.335525 L373.333333,225.189503 C373.333333,218.643942 368.027108,213.337717 361.481547,213.337717 L225.186002,213.337717 C218.641653,213.340821 213.33593,218.645154 213.331112,225.189503 L213.323353,254.817781 C213.318437,261.36334 218.623272,266.670956 225.168833,266.67267 L308.148508,266.668777 C314.597811,266.668626 319.844003,271.819888 319.996961,278.232408 L320.000294,278.520465 L320.000294,284.446058 C320.000294,304.082741 304.081617,320.001417 284.444934,320.001417 L171.844142,320.001417 C165.299521,320.001091 159.994006,314.695723 159.993499,308.151101 L159.990396,195.561225 C159.988874,175.924542 175.907112,160.005427 195.543794,160.004886 L361.448468,160.005865 C367.991159,159.998513 373.296195,154.696766 373.307606,148.154081 L373.325983,118.5258 C373.337392,111.980244 368.034458,106.670729 361.488898,106.666669 Z"></path>
        </g>
    </g>
</svg>