<?xml version="1.0" encoding="UTF-8"?>
<svg width="512px" height="512px" viewBox="0 0 512 512" version="1.1" xmlns="http://www.w3.org/2000/svg" xmlns:xlink="http://www.w3.org/1999/xlink">
    <title>logo</title>
    <defs>
        <linearGradient x1="13.2767147%" y1="3.51449623%" x2="75.4094427%" y2="100%" id="linearGradient-1">
            <stop stop-color="#47CAFF" offset="0%"></stop>
            <stop stop-color="#BD34FE" offset="100%"></stop>
        </linearGradient>
        <linearGradient x1="30.8764896%" y1="32.9719636%" x2="91.8009865%" y2="126.38407%" id="linearGradient-2">
            <stop stop-color="#47CAFF" offset="0%"></stop>
            <stop stop-color="#BD34FE" offset="100%"></stop>
        </linearGradient>
    </defs>
    <g id="logo" stroke="none" stroke-width="1" fill="none" fill-rule="evenodd">
        <g transform="translate(26, 41)" fill-rule="nonzero">
            <path d="M349.382097,20.8221674 L458.509461,355.37816 C463.672334,371.206179 454.992679,388.211649 439.122909,393.360939 C436.104054,394.340471 432.949292,394.839417 429.7747,394.839417 L211.519972,394.839417 C194.831507,394.839417 181.302833,381.346334 181.302833,364.701774 C181.302833,361.535535 181.803095,358.389071 182.785212,355.37816 L291.912575,20.8221674 C297.075448,4.99414782 314.125774,-3.66267274 329.995544,1.48661746 C339.186212,4.46872876 346.39212,11.6556779 349.382097,20.8221674 Z" id="Stroke-1" fill="url(#linearGradient-1)"></path>
            <path d="M168.079263,55.9827503 L277.206628,390.538743 C282.3695,406.366762 273.689846,423.372232 257.820075,428.521522 C254.801221,429.501054 251.646459,430 248.471867,430 L30.2171389,430 C13.5286739,430 0,416.506917 0,399.862357 C0,396.696118 0.500261555,393.549654 1.48237789,390.538743 L110.609742,55.9827503 C115.772614,40.1547306 132.822941,31.4979103 148.692711,36.6472002 C157.883379,39.6293119 165.089287,46.8162607 168.079263,55.9827503 Z" id="Stroke-2" fill="url(#linearGradient-2)"></path>
        </g>
    </g>
</svg>