<?xml version="1.0" encoding="UTF-8"?>
<svg width="512px" height="512px" viewBox="0 0 512 512" version="1.1" xmlns="http://www.w3.org/2000/svg" xmlns:xlink="http://www.w3.org/1999/xlink">
    <title>piwigo</title>
    <g id="piwigo" stroke="none" stroke-width="1" fill="none" fill-rule="evenodd">
        <g transform="translate(31, 16)" fill-rule="nonzero">
            <path d="M122.054572,30.1128934 L190.601348,30.1128934 L190.601348,30.1128934 C255.15722,30.7853704 298.438579,24.6798083 320.445428,11.796207 C320.445428,11.796207 320.445428,11.796207 320.445428,11.796207 C361.431927,-12.1987661 414.10982,1.57558807 438.104792,42.5620881 C445.820341,55.7412366 449.887101,70.7373 449.887101,86.0088303 L449.887101,357.945428 C449.887101,425.354307 395.241408,480 327.832528,480 L122.054572,480 C54.6456933,480 0,425.354307 0,357.945428 L0,152.167465 C0,84.7585867 54.6456933,30.1128934 122.054572,30.1128934 Z" id="Stroke-1" fill="#FF7700"></path>
            <circle id="Ellipse" fill="#FFFFFF" cx="368.181147" cy="78.531236" r="28.2440332"></circle>
            <circle id="Ellipse" fill="#FFFFFF" cx="224.94355" cy="255.056444" r="133.150442"></circle>
            <circle id="Ellipse" fill="#3C3C3C" cx="224.439193" cy="255.560801" r="94.3148966"></circle>
        </g>
    </g>
</svg>